<?xml version="1.0" encoding="utf-8"?>
<!-- Generator: Adobe Illustrator 25.0.0, SVG Export Plug-In . SVG Version: 6.00 Build 0)  -->
<svg version="1.1" xmlns="http://www.w3.org/2000/svg" xmlns:xlink="http://www.w3.org/1999/xlink" x="0px" y="0px"
	 viewBox="0 0 2800 2800" style="enable-background:new 0 0 2800 2800;" xml:space="preserve">
<style type="text/css">
	.st0{display:none;}
	.st1{display:inline;}
	.st2{fill:#F4A321;}
	.st3{fill:#F7AB3E;}
	.st4{fill:#FFC373;}
	.st5{stroke:#000000;stroke-width:40;stroke-miterlimit:10;}
	.st6{font-family:'AdobeMingStd-Light-B5pc-H';}
	.st7{font-size:1013.4926px;}
	.st8{clip-path:url(#SVGID_2_);}
	.st9{clip-path:url(#SVGID_2_);fill:#FEFFF8;}
	.st10{clip-path:url(#SVGID_2_);fill:#FFFFFF;}
	.st11{stroke:#040000;stroke-width:0.25;stroke-miterlimit:10;}
	.st12{fill:none;}
</style>
<g id="圖層_2" class="st0">
	<g class="st1">
		<g>
			<path class="st2" d="M1310.83,595.44c-31.51,22.85-61.86,47.4-89.62,74.71c-27.83,27.38-52.5,57.38-75.91,88.59
				c-6.51,11.23-9.79,23.34-9.83,36.34c0.04,13,3.32,25.11,9.83,36.34c6.4,10.82,15.01,19.43,25.83,25.83
				c11.23,6.51,23.34,9.79,36.34,9.83c77.59-7.16,154.52-21.12,229.05-43.98c17.64-5.41,33.62-17,43.03-33.09
				c5.26-8.26,8.11-17.19,8.54-26.77c2.14-9.57,1.71-19.14-1.29-28.71c-5.64-17.42-16.43-34.23-33.09-43.03
				c-5.73-2.42-11.47-4.84-17.2-7.26c-12.76-3.43-25.52-3.43-38.28,0c-24.69,3.49-49.38,6.97-74.07,10.46
				c12.76,46.29,25.52,92.57,38.28,138.86c8.34-1.35,16.69-2.68,25.06-3.83c-6.38,0.86-12.76,1.71-19.14,2.57
				c19.78-2.63,39.73-4.05,59.59-1.45c-6.38-0.86-12.76-1.71-19.14-2.57c10.66,1.53,21.02,4.27,30.96,8.42
				c-5.73-2.42-11.47-4.84-17.2-7.26c7.46,3.24,14.47,7.2,20.97,12.08c-4.86-3.75-9.71-7.51-14.57-11.26
				c5.58,4.34,10.55,9.21,14.9,14.79c-3.75-4.86-7.51-9.71-11.26-14.57c0.91,1.22,1.79,2.44,2.65,3.7
				c4.52,8.39,10.71,15.12,18.54,20.2c6.95,6.36,15.12,10.66,24.49,12.89c9.57,3,19.14,3.43,28.71,1.29
				c9.58-0.43,18.51-3.28,26.77-8.54c15.37-9.91,28.91-24.67,33.09-43.03c4.13-18.12,3.63-39.59-7.26-55.48
				c-14.13-20.62-30.44-37.34-52.13-50.22c-10.54-6.26-22.27-10.83-33.68-15.14c-5.98-2.26-12.15-4.01-18.41-5.29
				c-20.89-4.28-42.47-6.32-63.77-4.94c-22.61,1.46-45.09,5.18-67.44,8.81c-9.37,2.23-17.53,6.52-24.49,12.89
				c-7.84,5.08-14.02,11.81-18.54,20.2c-5.26,8.26-8.11,17.19-8.54,26.77c-2.14,9.57-1.71,19.14,1.29,28.71
				c5.64,17.42,16.43,34.23,33.09,43.03c5.73,2.42,11.47,4.84,17.2,7.26c12.76,3.43,25.52,3.43,38.28,0
				c24.69-3.49,49.38-6.97,74.07-10.46c-12.76-46.29-25.52-92.57-38.28-138.86c-54.3,16.65-109.89,28.84-166.18,36.47
				c6.38-0.86,12.76-1.71,19.14-2.57c-14.54,1.94-29.12,3.59-43.73,4.94c20.72,36.11,41.45,72.23,62.17,108.34
				c2.09-2.79,4.2-5.56,6.32-8.32c-3.75,4.86-7.51,9.71-11.26,14.57c33.82-43.61,73.04-82.82,116.65-116.65
				c-4.86,3.75-9.71,7.51-14.57,11.26c5.52-4.25,11.09-8.43,16.73-12.51c8.39-4.52,15.12-10.71,20.2-18.54
				c6.36-6.95,10.66-15.12,12.89-24.49c3-9.57,3.43-19.14,1.29-28.71c-0.43-9.58-3.28-18.51-8.54-26.77
				c-9.91-15.37-24.67-28.91-43.03-33.09C1348.49,584.12,1326.27,584.25,1310.83,595.44L1310.83,595.44z"/>
		</g>
	</g>
	<g class="st1">
		<g>
			<path class="st2" d="M756.13,1372.96c-8.28,132.34-0.27,264.81,20.84,395.66c5.29,32.82,11.81,65.43,16.27,98.38
				c-0.86-6.38-1.71-12.76-2.57-19.14c4.47,33.67,6.77,67.81,2.43,101.62c0.86-6.38,1.71-12.76,2.57-19.14
				c-2.56,18.9-7.25,37.36-14.59,54.98c2.42-5.73,4.84-11.47,7.26-17.2c-5.55,12.99-12.58,25.26-18.53,38.07
				c-5.24,11.28-10.43,22.73-14.19,34.6c-3.89,12.28-5.3,25.43-6.41,38.18c-0.37,9.91,1.69,19.16,6.2,27.74
				c2.9,8.93,7.87,16.65,14.89,23.17c4.86,3.75,9.71,7.51,14.57,11.26c11.23,6.51,23.34,9.79,36.34,9.83
				c12.48,1.11,25.54-0.97,37.58-3.91c3.02-0.74,5.94-1.75,8.83-2.89c8.57-3.37,17.57-6.75,25.62-11.41
				c2.74-1.58,5.34-3.37,7.88-5.24c7.2-5.32,14.67-10.72,21.23-16.89c9.12-8.59,16.8-19.1,23.77-29.4
				c4.17-6.16,7.66-12.76,10.65-19.57c5.15-11.77,10.29-23.57,14.17-35.82c4.79-15.11,8.37-30.65,11.67-46.14
				c14.9-69.98,21.04-141.84,23.21-213.27c1.13-37.15,1.26-74.32,1.37-111.49c0.06-18.43-8.07-37.89-21.09-50.91
				c-6.52-7.02-14.25-11.98-23.17-14.89c-8.58-4.51-17.83-6.57-27.74-6.2c-18.62,0.83-37.93,6.95-50.91,21.09
				c-12.95,14.11-21.03,31.38-21.09,50.91c-0.24,81.23-0.6,162.74-11.33,243.41c0.86-6.38,1.71-12.76,2.57-19.14
				c-2.95,21.8-6.62,43.51-11.29,65.01c-4.37,20.14-9.1,40.48-16.97,59.59c2.42-5.73,4.84-11.47,7.26-17.2
				c-4.04,9.53-8.94,18.55-15.18,26.83c3.75-4.86,7.51-9.71,11.26-14.57c-4.58,5.85-9.77,11.03-15.65,15.57
				c4.86-3.75,9.71-7.51,14.57-11.26c-5.09,3.77-10.47,6.92-16.3,9.39c5.73-2.42,11.47-4.84,17.2-7.26
				c-4.83,1.92-9.75,3.28-14.89,4.03c6.38-0.86,12.76-1.71,19.14-2.57c-4.14,0.49-8.22,0.56-12.38,0.19c24,24,48,48,72,72
				c0.15-1.7,0.34-3.38,0.56-5.08c-0.86,6.38-1.71,12.76-2.57,19.14c1.32-8.42,3.87-16.44,7.09-24.32
				c-2.42,5.73-4.84,11.47-7.26,17.2c4.48-10.6,9.96-20.72,15.08-31.01c7.4-14.86,14.12-30.22,19.33-45.98
				c3.61-10.91,6.27-22.14,8.09-33.48c2.71-16.85,4.99-33.89,5.68-50.96c0.92-22.93-0.73-45.89-3.51-68.64
				c-3.58-29.22-8.2-58.22-13.3-87.2c-4.85-27.54-9.4-55.12-13.14-82.84c0.86,6.38,1.71,12.76,2.57,19.14
				c-11.44-85.69-16.42-172.22-14.72-258.66c0.48-24.46,1.5-48.91,3.03-73.33c0.37-9.91-1.69-19.16-6.2-27.74
				c-2.9-8.93-7.87-16.65-14.89-23.17c-6.52-7.02-14.25-11.98-23.17-14.89c-8.58-4.51-17.83-6.57-27.74-6.2
				c-18.62,0.83-37.93,6.95-50.91,21.09c-3.75,4.86-7.51,9.71-11.26,14.57C759.45,1347.85,756.17,1359.97,756.13,1372.96
				L756.13,1372.96z"/>
		</g>
	</g>
	<g class="st1">
		<g>
			<path class="st2" d="M2298.22,1951.25c-1.2,1.05-2.42,2.06-3.67,3.05c4.86-3.75,9.71-7.51,14.57-11.26
				c-5.9,4.48-12.27,8.03-19.07,10.95c5.73-2.42,11.47-4.84,17.2-7.26c-16.46,6.77-34.1,9.54-51.63,11.95
				c-21.18,2.91-42.37,5.77-63.55,8.65c-42.95,5.85-85.9,11.69-128.84,17.54c-24.26,3.3-48.52,6.6-72.78,9.91
				c-9.37,2.23-17.53,6.52-24.49,12.89c-7.84,5.08-14.02,11.81-18.54,20.2c-2.42,5.73-4.84,11.47-7.26,17.2
				c-3.43,12.76-3.43,25.52,0,38.28c7.94,18.85,10.75,25.71,24.42,41.31c6.82,7.78,15.76,13.88,24.31,19.55
				c8.35,5.53,17.78,9.24,26.93,13.2c24.13,10.42,48.25,20.85,72.38,31.27c11.91,5.15,23.82,10.29,35.73,15.44
				c16.11,6.96,32.23,15.07,49.34,19.34c22.02,5.48,46.46,6.93,68.43,0.13c20.05-6.21,33.41-15.08,49.23-28.38
				c10.63-8.94,19.05-21.27,27.27-32.13c5.44-7.19,10.53-14.64,16.03-21.78c-3.75,4.86-7.51,9.71-11.26,14.57
				c4.98-6.39,10.31-12.47,16.68-17.52c-4.86,3.75-9.71,7.51-14.57,11.26c3.57-2.73,7.35-5.03,11.47-6.84
				c-5.73,2.42-11.47,4.84-17.2,7.26c1.76-0.72,3.54-1.34,5.37-1.88c17.57-5.17,33.72-17.18,43.03-33.09
				c5.26-8.26,8.11-17.19,8.54-26.77c2.14-9.57,1.71-19.14-1.29-28.71c-5.64-17.42-16.43-34.23-33.09-43.03
				c-16.98-8.97-36.62-12.81-55.48-7.26c-8.46,2.49-16.71,6.26-24.61,10.06c-2.68,1.29-5.23,2.84-7.64,4.57
				c-9.74,7.01-19.5,14.22-27.43,23.28c-12.34,14.09-22.58,29.79-33.98,44.61c3.75-4.86,7.51-9.71,11.26-14.57
				c-4.98,6.39-10.31,12.49-16.66,17.56c4.86-3.75,9.71-7.51,14.57-11.26c-3.57,2.74-7.34,5.06-11.46,6.88
				c5.73-2.42,11.47-4.84,17.2-7.26c-3.99,1.65-8.07,2.7-12.35,3.29c6.38-0.86,12.76-1.71,19.14-2.57
				c-4.75,0.47-9.39,0.33-14.11-0.27c6.38,0.86,12.76,1.71,19.14,2.57c-10.28-1.59-20-5.15-29.57-9.13
				c5.73,2.42,11.47,4.84,17.2,7.26c-26.5-11.19-52.83-22.8-79.23-34.2c-13.13-5.67-26.26-11.35-39.4-17.02
				c-10.5-4.53-21.26-8.79-30.46-15.72c4.86,3.75,9.71,7.51,14.57,11.26c-2.98-2.37-5.63-4.94-7.98-7.94
				c3.75,4.86,7.51,9.71,11.26,14.57c-1.38-1.93-2.56-3.9-3.58-6.04c2.42,5.73,4.84,11.47,7.26,17.2c-0.19-0.44-0.37-0.88-0.56-1.32
				c-16.76,29.52-33.53,59.05-50.29,88.57c47.87-6.51,95.73-13.03,143.6-19.54c23.93-3.26,47.87-6.51,71.8-9.77
				c22.45-3.05,45.06-5.55,67.37-9.44c10.56-1.84,21.09-4.23,31.1-8.1c10.1-3.9,20.55-7.89,30.03-13.29
				c9.84-5.61,18.92-13.03,27.42-20.41c7.02-6.52,11.98-14.25,14.89-23.17c4.51-8.58,6.57-17.83,6.2-27.74
				c0.37-9.91-1.69-19.16-6.2-27.74c-2.9-8.93-7.87-16.65-14.89-23.17c-13.72-12.6-31.74-21.95-50.91-21.09
				c-6.38,0.86-12.76,1.71-19.14,2.57C2317.79,1936.15,2307.2,1942.33,2298.22,1951.25L2298.22,1951.25z"/>
		</g>
	</g>
	<g class="st1">
		<g>
			<path class="st3" d="M1548.12,791.8c2.5-20.46-5.21-44.21-15.48-61.64c-5.16-8.75-11.88-16.87-18.54-24.5
				c-3.48-3.98-7.33-7.63-11.35-11.07c-23.29-19.91-49.38-36.82-74.35-54.52c-10.94-7.76-21.76-15.74-32.86-23.28
				c-8.82-5.99-19.12-10.66-29.56-12.62c-9.37-1.76-14.52-2.85-22.28-2.49c-5.75,0.26-15.13,1.28-20.65,2.86
				c-8.39,2.4-16.82,5.74-24.13,10.58c-24.29,16.08-43.83,40.22-61.64,62.98c-20.31,25.95-39.33,52.43-55.38,81.24
				c-2.42,5.73-4.84,11.47-7.26,17.2c-3,9.57-3.43,19.14-1.29,28.71c0.02,6.5,1.66,12.55,4.92,18.17
				c2.9,8.93,7.87,16.65,14.89,23.17c9.2,8.44,19.89,14.67,31.77,18.52c9.57,3,19.14,3.43,28.71,1.29
				c9.58-0.43,18.51-3.28,26.77-8.54c20.44-13.45,41.24-26.46,63.81-36.06c-5.73,2.42-11.47,4.84-17.2,7.26
				c13.97-5.81,28.4-10.17,43.4-12.31c-6.38,0.86-12.76,1.71-19.14,2.57c11.82-1.54,23.69-1.72,35.52-0.17
				c-6.38-0.86-12.76-1.71-19.14-2.57c8.91,1.3,17.53,3.56,25.86,6.97c-5.73-2.42-11.47-4.84-17.2-7.26
				c2.59,1.11,5.12,2.31,7.62,3.6c5.73-43.87,11.47-87.73,17.2-131.6c-4.9,1.96-9.89,3.35-15.1,4.16
				c6.38-0.86,12.76-1.71,19.14-2.57c-6.09,0.8-12.13,0.77-18.23,0.04c6.38,0.86,12.76,1.71,19.14,2.57
				c-8.34-1.17-16.31-3.57-24.08-6.79c5.73,2.42,11.47,4.84,17.2,7.26c-13.89-5.98-26.55-14.25-38.53-23.42
				c4.86,3.75,9.71,7.51,14.57,11.26c-7.96-6.16-15.59-12.71-23.05-19.46c-14.11-12.79-31.51-21.09-50.91-21.09
				c-9.91-0.37-19.16,1.69-27.74,6.2c-8.93,2.9-16.65,7.87-23.17,14.89c-12.6,13.72-21.95,31.74-21.09,50.91
				c0.83,18.55,6.9,38.05,21.09,50.91c13.27,12.03,27.3,23.15,41.7,33.8c9.65,7.14,19.84,13.65,30.75,18.69
				c10.17,4.7,20.6,9.45,31.38,12.72c11.03,3.34,22.9,4.6,34.27,5.73c5.61,0.56,11.12,0.47,16.71-0.23
				c11.67-1.44,23.29-2.34,34.24-6.73c5.73-2.42,11.47-4.84,17.2-7.26c4.86-3.75,9.71-7.51,14.57-11.26
				c3.75-4.86,7.51-9.71,11.26-14.57c5.26-8.26,8.11-17.19,8.54-26.77c1.71-6.38,1.71-12.76,0-19.14
				c-0.02-6.5-1.66-12.55-4.92-18.17c-1.71-6.1-4.8-11.39-9.26-15.89c-5.08-7.84-11.81-14.02-20.2-18.54
				c-25.35-13.13-49.76-19.36-78.21-21.26c-7.91-0.53-15.87-0.29-23.75,0.6c-13.94,1.57-28.11,3.23-41.72,6.89
				c-37.96,10.22-72.63,30.29-105.22,51.73c32.84,32.84,65.67,65.67,98.51,98.51c12.71-22.8,27.09-44.6,43.03-65.27
				c-3.75,4.86-7.51,9.71-11.26,14.57c7.28-9.36,14.84-18.5,22.73-27.35c7.59-8.52,15.28-17.62,24.15-24.83
				c-4.86,3.75-9.71,7.51-14.57,11.26c1.7-1.27,3.41-2.34,5.32-3.28c-5.73,2.42-11.47,4.84-17.2,7.26c1.49-0.59,2.82-0.98,4.39-1.28
				c-6.38,0.86-12.76,1.71-19.14,2.57c1.04-0.14,2.09-0.17,3.14-0.08c-6.38-0.86-12.76-1.71-19.14-2.57
				c2.15,0.29,4.05,0.85,6.06,1.68c-5.73-2.42-11.47-4.84-17.2-7.26c8.2,4,15.49,10.18,22.91,15.45
				c8.12,5.76,16.25,11.52,24.37,17.28c15.27,10.83,30.92,21.28,45.75,32.71c-4.86-3.75-9.71-7.51-14.57-11.26
				c7.53,5.9,14.63,12.28,20.52,19.85c-3.75-4.86-7.51-9.71-11.26-14.57c2.84,3.82,5.27,7.81,7.14,12.19
				c-2.42-5.73-4.84-11.47-7.26-17.2c1.18,3.02,2.03,6.03,2.54,9.24c-0.86-6.38-1.71-12.76-2.57-19.14c0.4,3.31,0.39,6.5-0.01,9.82
				c-0.37,9.91,1.69,19.16,6.2,27.74c2.9,8.93,7.87,16.65,14.89,23.17c6.52,7.02,14.25,11.98,23.17,14.89
				c8.58,4.51,17.83,6.57,27.74,6.2c18.62-0.83,37.93-6.95,50.91-21.09c3.75-4.86,7.51-9.71,11.26-14.57
				C1544.8,816.91,1548.08,804.8,1548.12,791.8L1548.12,791.8z"/>
		</g>
	</g>
	<g class="st1">
		<g>
			<path class="st3" d="M667.85,1251.54c-8.72,63.44-14.81,127-18,190.95c-2.91,58.17-3.96,116.41-4.58,174.65
				c-1.27,117.82-3.99,236.35,18.37,352.65c6.31,32.79,14.48,64.47,28.78,94.79c2.44,5.17,5.22,10.2,8.49,14.89
				c6.16,8.85,12.93,18.53,21.08,25.97c7.74,7.07,16.37,14.45,25.96,19.08c7.47,3.61,15.12,7.13,23.06,9.56
				c8.59,2.63,18.06,3.05,26.78,4.14c6.38-0.86,12.76-1.71,19.14-2.57c9.37-2.23,17.53-6.52,24.49-12.89
				c5.41-3.2,9.71-7.51,12.92-12.92c6.36-6.95,10.66-15.12,12.89-24.49c14.34-35.18,19.6-73.56,22.84-111.17
				c2.83-32.84,2.97-65.9,3.75-98.84c1.67-70.48,3.34-140.95,5.01-211.43c0.47-19.61,0.93-39.23,1.4-58.84
				c0.41-17.32-0.22-35.02,1.96-52.23c-0.86,6.38-1.71,12.76-2.57,19.14c0.9-6.48,2.32-12.82,4.84-18.87
				c-2.42,5.73-4.84,11.47-7.26,17.2c1.33-2.96,2.88-5.73,4.83-8.33c-3.75,4.86-7.51,9.71-11.26,14.57c1.48-1.82,3.07-3.43,4.9-4.9
				c-4.86,3.75-9.71,7.51-14.57,11.26c1.6-1.17,3.24-2.13,5.03-2.96c-5.73,2.42-11.47,4.84-17.2,7.26c2.14-0.87,4.25-1.45,6.53-1.84
				c-6.38,0.86-12.76,1.71-19.14,2.57c2.56-0.27,4.98-0.23,7.53,0.11c-6.38-0.86-12.76-1.71-19.14-2.57c2.53,0.48,4.9,1.2,7.28,2.15
				c-5.73-2.42-11.47-4.84-17.2-7.26c3.93,1.77,7.48,4.01,10.91,6.62c-4.86-3.75-9.71-7.51-14.57-11.26
				c8.65,6.94,15.62,15.59,22.36,24.32c-3.75-4.86-7.51-9.71-11.26-14.57c15.63,20.47,28.57,42.78,38.64,66.48
				c-2.42-5.73-4.84-11.47-7.26-17.2c10.07,24.07,17.23,49.38,20.74,75.25c-0.86-6.38-1.71-12.76-2.57-19.14
				c1.11,9.04,1.05,18.14-0.14,27.17c0.86-6.38,1.71-12.76,2.57-19.14c-1,6.87-2.64,13.58-5.27,20.01
				c2.42-5.73,4.84-11.47,7.26-17.2c-1.79,4.17-3.95,8.08-6.7,11.69c3.75-4.86,7.51-9.71,11.26-14.57
				c-1.78,2.22-3.72,4.23-5.93,6.04c4.86-3.75,9.71-7.51,14.57-11.26c-2.23,1.71-4.57,3.11-7.15,4.24
				c5.73-2.42,11.47-4.84,17.2-7.26c-2.38,0.94-4.77,1.58-7.3,1.98c6.38-0.86,12.76-1.71,19.14-2.57c-1.15,0.14-2.28,0.23-3.43,0.29
				c-19.03,0.96-37.2,7.37-50.91,21.09c-7.02,6.52-11.98,14.25-14.89,23.17c-4.51,8.58-6.57,17.83-6.2,27.74
				c0.83,18.62,6.95,37.93,21.09,50.91c13.67,12.55,31.78,22.06,50.91,21.09c27.2-1.38,52.56-10.68,71.9-30.41
				c14.68-14.97,24.4-33.47,30.44-53.42c9.95-32.89,6.34-66.73-0.67-99.7c-6.74-31.66-18.86-62.46-33.51-91.24
				c-6.08-11.95-12.96-23.5-20.58-34.53c-6.98-10.11-14.61-19.77-22.2-29.41c-4.08-5.19-8.27-10.37-12.93-15.06
				c-21.2-21.34-50.16-37.33-80.98-36.81c-17.21,0.29-33.02,4.57-48.02,12.95c-15.05,8.41-25.58,20.47-35.03,34.55
				c-12.62,18.8-15.82,41.13-18.29,62.95c-1.54,13.55-1.23,27.33-1.55,40.94c-1.51,63.83-3.03,127.65-4.54,191.48
				c-0.85,35.9-1.7,71.81-2.55,107.71c-0.8,33.94-1.24,67.99-5.68,101.7c0.86-6.38,1.71-12.76,2.57-19.14
				c-3.28,24.04-8.72,47.71-17.89,70.22c23.14-17.62,46.29-35.24,69.43-52.86c-0.44-0.05-0.88-0.11-1.32-0.16
				c6.38,0.86,12.76,1.71,19.14,2.57c-3.42-0.53-6.67-1.41-9.89-2.68c5.73,2.42,11.47,4.84,17.2,7.26
				c-3.88-1.67-7.42-3.8-10.77-6.37c4.86,3.75,9.71,7.51,14.57,11.26c-4.06-3.29-7.57-7.04-10.76-11.16
				c3.75,4.86,7.51,9.71,11.26,14.57c-5.22-7-9.3-14.68-12.73-22.71c2.42,5.73,4.84,11.47,7.26,17.2
				c-7.06-16.98-11.23-35.14-15.21-53.03c-4.59-20.63-8.17-41.47-11-62.41c0.86,6.38,1.71,12.76,2.57,19.14
				c-10.63-79.94-9.98-160.74-9.29-241.21c0.72-83.22,1.47-166.5,6.45-249.6c2.81-46.92,7-93.75,13.23-140.34
				c-0.86,6.38-1.71,12.76-2.57,19.14c0.26-1.96,0.53-3.91,0.8-5.87c3-9.57,3.43-19.14,1.29-28.71c-0.43-9.58-3.28-18.51-8.54-26.77
				c-4.52-8.39-10.71-15.12-18.54-20.2c-6.95-6.36-15.12-10.66-24.49-12.89c-18.43-4.2-39.12-3.29-55.48,7.26
				c-4.86,3.75-9.71,7.51-14.57,11.26C677.45,1228.75,671.27,1239.34,667.85,1251.54L667.85,1251.54z"/>
		</g>
	</g>
	<g class="st1">
		<g>
			<path class="st3" d="M1983.76,2153.02c61.44,23.75,126.62,36.66,192.25,41.33c28.94,2.06,58.49,2.59,87.4-0.37
				c12.43-1.27,25.01-2.62,37.2-5.45c11.88-2.76,23.26-7.87,34.24-12.98c20.53-9.55,38.42-27.44,49.86-46.79
				c15.27-25.82,20.27-57.35,12.75-86.47c-3.02-11.7-8.34-22.62-15.56-32.18c-3.83-5.07-7.83-10.08-10.46-15.91
				c2.42,5.73,4.84,11.47,7.26,17.2c-0.56-1.41-0.99-2.79-1.28-4.28c0.86,6.38,1.71,12.76,2.57,19.14c-0.11-1.05-0.14-1.95-0.05-3
				c-0.86,6.38-1.71,12.76-2.57,19.14c0.09-0.64,0.25-1.27,0.49-1.87c-2.42,5.73-4.84,11.47-7.26,17.2
				c0.25-0.62,0.56-1.21,0.96-1.75c-3.75,4.86-7.51,9.71-11.26,14.57c0.75-0.93,1.47-1.63,2.41-2.38
				c-4.86,3.75-9.71,7.51-14.57,11.26c1.1-0.71,2.17-1.26,3.36-1.8c-5.73,2.42-11.47,4.84-17.2,7.26
				c7.67-3.2,15.77-5.64,22.83-10.02c5.37-3.34,11.84-8.28,16.14-12.94c3.75-4.86,7.51-9.71,11.26-14.57
				c1.55-3.15,2.93-6.37,4.15-9.67c4.7-11.13,6.35-13.95,6.33-28.72c-0.59-6.51-1.45-12.98-2.6-19.43
				c-2.42-5.73-4.84-11.47-7.26-17.2c-2.11-3.68-8.97-12.28-11.86-15.38c-8.08-8.67-20.98-15.61-32.26-18.77
				c-14.32-4.01-18.74-3.16-31.16-1.49c-4.72,0.63-7.06,0.69-10.66,1.56c-6.04,2.1-11.91,4.59-17.6,7.46
				c-4.86,3.75-9.71,7.51-14.57,11.26c-2.39,2.11-4.35,4.61-5.89,7.52c-6.36,6.95-10.66,15.12-12.89,24.49
				c-2.94,12.64-3.56,25.89-0.09,38.54c4.52,16.5,17.6,36.29,34.16,43.86c8.26,5.26,17.19,8.11,26.77,8.54
				c9.57,2.14,19.14,1.71,28.71-1.29c9.37-2.23,17.53-6.52,24.49-12.89c7.84-5.08,14.02-11.81,18.54-20.2
				c8.83-16.71,13.25-36.95,7.26-55.48c-5.44-16.81-16.34-35.37-33.09-43.03c-0.2-0.09-0.41-0.19-0.61-0.28
				c4.86,3.75,9.71,7.51,14.57,11.26c-0.12-0.09-0.23-0.19-0.35-0.28c6.17,10.59,12.34,21.18,18.52,31.77
				c-0.04-0.09-0.07-0.18-0.11-0.27c0,12.76,0,25.52,0,38.28c0.03-0.09,0.06-0.17,0.09-0.26c-6.17,10.59-12.34,21.18-18.52,31.77
				c0.09-0.08,0.17-0.15,0.26-0.23c-4.86,3.75-9.71,7.51-14.57,11.26c0.13-0.07,0.27-0.13,0.4-0.2c-5.73,2.42-11.47,4.84-17.2,7.26
				c0.35-0.13,0.71-0.22,1.09-0.27c-6.38,0.86-12.76,1.71-19.14,2.57c0.66-0.06,1.22-0.05,1.88,0.04
				c-6.38-0.86-12.76-1.71-19.14-2.57c0.19,0.05,0.38,0.11,0.57,0.16c-5.73-2.42-11.47-4.84-17.2-7.26
				c0.16,0.08,0.32,0.17,0.49,0.25c-4.86-3.75-9.71-7.51-14.57-11.26c0.12,0.12,0.25,0.23,0.37,0.35
				c-3.75-4.86-7.51-9.71-11.26-14.57c0.08,0.15,0.15,0.3,0.23,0.46c-3.28-12.11-6.55-24.23-9.83-36.34
				c0.02,0.19,0.03,0.38,0.05,0.57c0.86-6.38,1.71-12.76,2.57-19.14c-0.05,0.23-0.1,0.46-0.16,0.69c2.42-5.73,4.84-11.47,7.26-17.2
				c-0.17,0.36-0.35,0.72-0.52,1.07c3.75-4.86,7.51-9.71,11.26-14.57c-0.42,0.65-0.95,1.21-1.57,1.68
				c4.86-3.75,9.71-7.51,14.57-11.26c-1.06,0.71-2.07,1.24-3.23,1.76c5.73-2.42,11.47-4.84,17.2-7.26
				c-6.51,2.72-13.22,5.23-19.6,8.26c-4.19,1.99-6.53,4.24-10.65,7.43c-9.68,7.48-14.89,12.02-21.7,23.89
				c-7.23,12.59-10.23,26.27-10.59,40.63c-0.2,8.06,1.14,16.74,3.96,24.44c4.16,11.35,8.18,20.4,15.16,29.72
				c3.51,4.7,7.33,9.19,9.64,14.63c-2.42-5.73-4.84-11.47-7.26-17.2c0.93,2.48,1.56,4.96,1.96,7.57
				c-0.86-6.38-1.71-12.76-2.57-19.14c0.35,3.1,0.34,6.11,0.02,9.21c0.86-6.38,1.71-12.76,2.57-19.14
				c-0.56,4.07-1.63,7.95-3.15,11.76c2.42-5.73,4.84-11.47,7.26-17.2c-1.85,4.28-4.18,8.2-7.03,11.89
				c3.75-4.86,7.51-9.71,11.26-14.57c-2.35,2.87-4.9,5.45-7.78,7.79c4.86-3.75,9.71-7.51,14.57-11.26
				c-4.72,3.61-9.84,6.44-15.3,8.76c5.73-2.42,11.47-4.84,17.2-7.26c-8.21,3.28-16.75,5.23-25.49,6.5
				c6.38-0.86,12.76-1.71,19.14-2.57c-21.23,2.85-43,2.98-64.39,2.53c-22.26-0.47-44.47-2.23-66.54-5.15
				c6.38,0.86,12.76,1.71,19.14,2.57c-46.61-6.32-92.34-18.02-136.21-34.97c-9.57-3-19.14-3.43-28.71-1.29
				c-9.58,0.43-18.51,3.28-26.77,8.54c-8.39,4.52-15.12,10.71-20.2,18.54c-6.36,6.95-10.66,15.12-12.89,24.49
				c-4.2,18.43-3.29,39.12,7.26,55.48c3.75,4.86,7.51,9.71,11.26,14.57C1960.97,2143.42,1971.56,2149.6,1983.76,2153.02
				L1983.76,2153.02z"/>
		</g>
	</g>
	<g class="st1">
		<g>
			<path class="st3" d="M2275.69,1943.15c-55.75,17.69-112.55,31.91-170.05,42.57c-9.37,2.23-17.53,6.52-24.49,12.89
				c-7.84,5.08-14.02,11.81-18.54,20.2c-5.26,8.26-8.11,17.19-8.54,26.77c-2.14,9.57-1.71,19.14,1.29,28.71
				c5.64,17.42,16.43,34.23,33.09,43.03c5.73,2.42,11.47,4.84,17.2,7.26c12.76,3.43,25.52,3.43,38.28,0
				c57.51-10.67,114.31-24.88,170.05-42.57c17.69-5.61,33.53-16.85,43.03-33.09c5.26-8.26,8.11-17.19,8.54-26.77
				c2.14-9.57,1.71-19.14-1.29-28.71c-5.64-17.42-16.43-34.23-33.09-43.03C2314.4,1941.55,2294.29,1937.24,2275.69,1943.15
				L2275.69,1943.15z"/>
		</g>
	</g>
	<g class="st1">
		<g>
			<path class="st4" d="M1630.54,721.77c-8.96-3.04-17.81-6.39-26.54-10.05c5.73,2.42,11.47,4.84,17.2,7.26
				c-30.79-13.06-59.76-29.98-86.29-50.35c4.86,3.75,9.71,7.51,14.57,11.26c-17.51-13.56-33.46-28.62-48.72-44.64
				c-11.05-11.6-22.64-21.21-35.64-30.81c-3.83-2.83-7.88-5.29-12.21-7.27c-9.65-4.43-19.47-9.2-30.02-10.96
				c-7.81-1.3-17.82-3.18-26.45-2.92c-8.99,0.26-18.04,1.82-26.84,3.33c-6.05,1.03-11.98,2.58-17.91,4.16
				c-9.2,2.45-18.35,5.1-27.32,8.31c-28.2,10.09-54.38,22.7-76.12,43.8c-16.14,15.67-25.81,33.58-33.85,54.17
				c-4.79,12.26-6.36,25.48-11.35,37.68c2.42-5.73,4.84-11.47,7.26-17.2c-1.44,3.26-3.06,6.23-5.18,9.1
				c3.75-4.86,7.51-9.71,11.26-14.57c-2.12,2.66-4.43,4.99-7.09,7.11c4.86-3.75,9.71-7.51,14.57-11.26
				c-2.28,1.68-4.63,3.09-7.22,4.25c5.73-2.42,11.47-4.84,17.2-7.26c-2.11,0.83-4.19,1.41-6.42,1.77
				c6.38-0.86,12.76-1.71,19.14-2.57c-1.76,0.17-3.43,0.17-5.19,0c6.38,0.86,12.76,1.71,19.14,2.57c-1.78-0.31-3.4-0.77-5.07-1.46
				c5.73,2.42,11.47,4.84,17.2,7.26c-0.41-0.2-0.82-0.41-1.23-0.61c-12.11,44.72-24.23,89.45-36.34,134.17
				c84.06,2.33,168.2,1.33,252.18-3.01c19.05-0.98,37.18-7.36,50.91-21.09c7.02-6.52,11.98-14.25,14.89-23.17
				c4.51-8.58,6.57-17.83,6.2-27.74c-0.83-18.62-6.95-37.93-21.09-50.91c-13.66-12.54-31.79-22.08-50.91-21.09
				c-83.98,4.34-168.12,5.34-252.18,3.01c-6.38,0.86-12.76,1.71-19.14,2.57c-9.37,2.23-17.53,6.52-24.49,12.89
				c-5.41,3.2-9.71,7.51-12.92,12.92c-6.36,6.95-10.66,15.12-12.89,24.49c-2.88,12.66-2.88,25.62,0,38.28
				c2.23,9.37,6.52,17.53,12.89,24.49c5.08,7.84,11.81,14.02,20.2,18.54c15.4,7.67,26.51,11.56,43.94,12.03
				c9.42,0.26,19.23-1.02,28.2-3.97c17.78-5.85,35.29-15.75,47.34-30.37c6.4-7.76,12.36-14.73,16.44-23.67
				c4.21-9.23,8.36-18.69,11.07-28.52c2.43-8.83,4.17-17.81,7.54-26.36c-2.42,5.73-4.84,11.47-7.26,17.2
				c2.19-5.15,4.91-9.93,8.24-14.42c-3.75,4.86-7.51,9.71-11.26,14.57c4.13-5.34,8.9-9.97,14.22-14.12
				c-4.86,3.75-9.71,7.51-14.57,11.26c8.16-6.18,17.16-10.97,26.55-15c-5.73,2.42-11.47,4.84-17.2,7.26
				c18.15-7.61,38.32-14.09,57.82-16.9c-6.38,0.86-12.76,1.71-19.14,2.57c4.4-0.51,8.68-0.63,13.09-0.13
				c-6.38-0.86-12.76-1.71-19.14-2.57c3.97,0.6,7.73,1.64,11.46,3.11c-5.73-2.42-11.47-4.84-17.2-7.26
				c5.56,2.39,10.6,5.56,15.39,9.24c-4.86-3.75-9.71-7.51-14.57-11.26c10.93,8.66,20.01,19.28,29.8,29.15
				c10.39,10.47,21.39,20.33,32.91,29.53c27.56,22.02,56.06,42.06,87.87,57.47c20.09,9.73,40.85,18.4,61.99,25.57
				c9.57,3,19.14,3.43,28.71,1.29c9.58-0.43,18.51-3.28,26.77-8.54c8.39-4.52,15.12-10.71,20.2-18.54
				c6.36-6.95,10.66-15.12,12.89-24.49c4.2-18.43,3.29-39.12-7.26-55.48c-3.75-4.86-7.51-9.71-11.26-14.57
				C1653.33,731.36,1642.74,725.19,1630.54,721.77L1630.54,721.77z"/>
		</g>
	</g>
	<g class="st1">
		<g>
			<path class="st4" d="M756.17,1514.28c10.43,115.93,21.79,231.77,34.1,347.51c3.45,32.41,6.97,64.81,10.56,97.2
				c-0.37,9.91,1.69,19.16,6.2,27.74c2.9,8.93,7.87,16.65,14.89,23.17c6.52,7.02,14.25,11.98,23.17,14.89
				c8.58,4.51,17.83,6.57,27.74,6.2c18.62-0.83,37.93-6.95,50.91-21.09c3.75-4.86,7.51-9.71,11.26-14.57
				c6.51-11.23,9.79-23.34,9.83-36.34c11.95-110.13,17.81-220.91,17.45-331.69c-0.1-30.99-0.7-61.98-1.76-92.95
				c-47.14,6.38-94.29,12.76-141.43,19.14c6.63,16.93,13.26,33.86,19.89,50.79c3.26,8.31,6.51,16.62,9.77,24.93
				c3.07,7.83,6.27,15.61,7.54,23.97c-0.86-6.38-1.71-12.76-2.57-19.14c0.38,3.45,0.38,6.76-0.07,10.2
				c0.86-6.38,1.71-12.76,2.57-19.14c-0.57,3.18-1.45,6.17-2.64,9.17c2.42-5.73,4.84-11.47,7.26-17.2
				c-2.86,6.55-6.87,12.37-11.22,18.01c3.75-4.86,7.51-9.71,11.26-14.57c-16.53,21.09-33.32,41.84-47.3,64.75
				c-13.97,22.88-24.83,47.02-35.12,71.73c-8.19,19.65-14.92,39.89-19.96,60.58c-2.42,9.92-4.46,19.94-6.11,30.02
				c-2.79,17.02-6.18,34.54-5.74,51.87c0.48,19.11,4.41,36.47,11.5,53.88c4.5,11.05,8.06,21.96,9.73,33.81
				c-0.86-6.38-1.71-12.76-2.57-19.14c2.74,21.16,1.02,42.47,1.4,63.73c0.58,32.49,6.27,64.36,22.44,92.9
				c8.85,15.62,25.81,28.35,43.03,33.09c9.57,3,19.14,3.43,28.71,1.29c9.58-0.43,18.51-3.28,26.77-8.54
				c15.37-9.91,28.91-24.67,33.09-43.03c4.34-19.05,2.53-38.21-7.26-55.48c-1.57-2.77-2.99-5.6-4.27-8.52
				c2.42,5.73,4.84,11.47,7.26,17.2c-3.43-8.25-5.54-16.84-6.8-25.68c0.86,6.38,1.71,12.76,2.57,19.14
				c-3.21-24.56-0.27-49.34-1.78-73.99c-1.09-17.83-3.02-36.46-8.94-53.45c-4.52-12.95-10.96-25.1-12.89-38.84
				c0.86,6.38,1.71,12.76,2.57,19.14c-1.06-9.47-0.35-18.84,0.85-28.26c-0.86,6.38-1.71,12.76-2.57,19.14
				c4.78-35.56,14.31-70.28,28.18-103.37c-2.42,5.73-4.84,11.47-7.26,17.2c13.54-31.92,31.01-62,52.12-89.51
				c-3.75,4.86-7.51,9.71-11.26,14.57c11.43-14.76,25.21-28.56,33.29-45.53c8.37-17.56,12.83-31.32,13.49-51.07
				c0.42-12.61-1.96-26.06-6.15-38.06c-10.24-29.3-22.6-58-33.92-86.9c-2.23-9.37-6.52-17.53-12.89-24.49
				c-5.08-7.84-11.81-14.02-20.2-18.54c-5.73-2.42-11.47-4.84-17.2-7.26c-9.57-3-19.14-3.43-28.71-1.29
				c-6.5,0.02-12.55,1.66-18.17,4.92c-8.93,2.9-16.65,7.87-23.17,14.89c-12.68,13.81-21.75,31.65-21.09,50.91
				c3.79,110.71,1.46,221.62-7.08,332.07c-2.39,30.9-5.27,61.76-8.61,92.57c48,0,96,0,144,0
				c-12.83-115.68-24.73-231.47-35.68-347.35c-3.07-32.45-6.06-64.9-8.98-97.36c0.37-9.91-1.69-19.16-6.2-27.74
				c-2.9-8.93-7.87-16.65-14.89-23.17c-6.52-7.02-14.25-11.98-23.17-14.89c-8.58-4.51-17.83-6.58-27.74-6.2
				c-18.62,0.83-37.93,6.95-50.91,21.09C765.01,1476.71,754.48,1495.49,756.17,1514.28L756.17,1514.28z"/>
		</g>
	</g>
	<g class="st1">
		<g>
			<path class="st4" d="M1910.78,2157.49c85.41,7.62,171.1,11.97,256.84,12.96c24.17,0.28,48.33,0.29,72.5,0.05
				c-6.38-47.14-12.76-94.29-19.14-141.43c-41.63,15.99-83.25,31.99-124.88,47.98c-5.73,2.42-11.47,4.84-17.2,7.26
				c-8.39,4.52-15.12,10.71-20.2,18.54c-4.46,4.49-7.55,9.79-9.26,15.89c-4.51,8.58-6.58,17.83-6.2,27.74
				c0.57,12.78,3.85,25.03,9.83,36.34c4.52,8.39,10.71,15.12,18.54,20.2c6.95,6.36,15.12,10.66,24.49,12.89
				c29,3.93,57.88,7.38,87.15,8.43c11.37,0.41,22.76,0.53,34.14,0.36c5.32-0.08,10.65-0.15,15.96-0.45
				c5.55-0.32,11.01-1.17,16.53-1.91c5.67-0.76,11.64-1.23,17.19-2.85c20.05-5.85,39.34-17.41,52.59-33.75
				c9.98-12.31,19.62-25.06,28.14-38.45c14.05-22.08,24.66-45.9,34.26-70.21c8.57-21.71,14.64-44.32,18.21-67.38
				c0.86-6.38,1.71-12.76,2.57-19.14c-0.86-6.38-1.71-12.76-2.57-19.14c-2.42-5.73-4.84-11.47-7.26-17.2
				c-4.52-8.39-10.71-15.12-18.54-20.2c-4.49-4.46-9.79-7.55-15.89-9.26c-5.61-3.26-11.67-4.89-18.17-4.92
				c-6.38-1.71-12.76-1.71-19.14,0c-9.58,0.43-18.51,3.28-26.77,8.54c-29.19,14.09-58.38,28.19-87.58,42.28
				c-8.39,4.52-15.12,10.71-20.2,18.54c-6.36,6.95-10.66,15.12-12.89,24.49c-3,9.57-3.43,19.14-1.29,28.71
				c0.43,9.58,3.28,18.51,8.54,26.77c9.91,15.37,24.67,28.91,43.03,33.09c6.38,0.86,12.76,1.71,19.14,2.57
				c13-0.04,25.11-3.32,36.34-9.83c29.19-14.09,58.38-28.19,87.58-42.28c-35.26-27.1-70.51-54.21-105.77-81.31
				c-3.97,25.65-11.09,50.65-21.15,74.58c2.42-5.73,4.84-11.47,7.26-17.2c-10.18,23.85-23.17,46.37-38.85,67.03
				c3.75-4.86,7.51-9.71,11.26-14.57c-3.47,4.48-7.11,8.69-11.55,12.23c4.86-3.75,9.71-7.51,14.57-11.26
				c-2.32,1.69-4.69,3.07-7.31,4.25c5.73-2.42,11.47-4.84,17.2-7.26c-3.81,1.49-7.63,2.39-11.67,2.98
				c6.38-0.86,12.76-1.71,19.14-2.57c-20,2.41-40.88,1.4-60.96,0.57c-20.8-0.86-41.54-2.71-62.18-5.44
				c6.38,0.86,12.76,1.71,19.14,2.57c-0.64-0.09-1.29-0.17-1.93-0.26c0,46.29,0,92.57,0,138.86
				c41.63-15.99,83.25-31.99,124.88-47.98c9.37-2.23,17.53-6.52,24.49-12.89c7.84-5.08,14.02-11.81,18.54-20.2
				c2.42-5.73,4.84-11.47,7.26-17.2c3-9.57,3.43-19.14,1.29-28.71c-0.02-6.5-1.66-12.55-4.92-18.17
				c-2.9-8.93-7.87-16.65-14.89-23.17c-14.01-12.86-31.47-21.28-50.91-21.09c-85.74,0.86-171.51-1.56-257.07-7.33
				c-24.11-1.63-48.21-3.52-72.28-5.67c-9.91-0.37-19.16,1.69-27.74,6.2c-8.93,2.9-16.65,7.87-23.17,14.89
				c-7.02,6.52-11.98,14.25-14.89,23.17c-4.51,8.58-6.58,17.83-6.2,27.74c0.83,18.62,6.95,37.93,21.09,50.91
				c4.86,3.75,9.71,7.51,14.57,11.26C1885.67,2154.17,1897.78,2157.45,1910.78,2157.49L1910.78,2157.49z"/>
		</g>
	</g>
	<g class="st1">
		<g>
			<path class="st4" d="M744.36,1280.36c3.7,70.21,5.05,140.53,4.04,210.84c22,0,44,0,66,0c-0.05-21.33-0.1-42.67-0.15-64
				c-0.02-10.5-0.05-21.01-0.07-31.51c-0.02-9.02-0.43-18.14,0.75-27.11c-0.39,2.92-0.79,5.85-1.18,8.77
				c0.51-3.26,1.25-6.37,2.42-9.46c-1.11,2.63-2.22,5.26-3.33,7.88c0.9-2.1,1.95-4.01,3.27-5.87c-1.72,2.23-3.44,4.45-5.16,6.68
				c1.16-1.44,2.38-2.7,3.8-3.89c-18.39-4.85-36.77-9.71-55.16-14.56c6.97,21.81,12.3,44.08,15.96,66.68
				c1.24,7.66,8.76,15.97,15.17,19.72c7.07,4.14,17.5,5.89,25.43,3.33c7.98-2.58,15.69-7.53,19.72-15.17
				c4.39-8.32,4.82-16.19,3.33-25.43c-3.66-22.6-8.99-44.87-15.96-66.68c-3.55-11.09-11.6-19.9-23.05-23.05
				c-12.1-3.33-22.91,0.71-32.11,8.49c-23.59,19.95-19.93,54.85-19.86,82.46c0.06,27.57,0.13,55.14,0.19,82.71
				c0.04,17.26,15.15,33.8,33,33c18.09-0.81,32.73-14.5,33-33c1.01-70.3-0.34-140.62-4.04-210.84c-0.91-17.21-14.53-33.83-33-33
				C760.26,1248.12,743.39,1261.89,744.36,1280.36L744.36,1280.36z"/>
		</g>
	</g>
	<g class="st1">
		<g>
			<path class="st4" d="M808.97,1239.73c-0.07-0.93-0.07-1.73,0.04-2.65c-0.39,2.92-0.79,5.85-1.18,8.77
				c0.18-0.87,0.41-1.61,0.75-2.43c-1.11,2.63-2.22,5.26-3.33,7.88c0.4-0.78,0.82-1.45,1.34-2.16c-1.72,2.23-3.44,4.45-5.16,6.68
				c0.77-0.9,1.59-1.67,2.53-2.39c-2.23,1.72-4.45,3.44-6.68,5.16c1-0.68,2.01-1.24,3.12-1.74c-2.63,1.11-5.26,2.22-7.88,3.33
				c1.14-0.43,2.25-0.76,3.45-0.99c-2.92,0.39-5.85,0.79-8.77,1.18c1.48-0.2,2.88-0.21,4.36-0.02c-2.92-0.39-5.85-0.79-8.77-1.18
				c0.86,0.18,1.62,0.4,2.44,0.71c-2.63-1.11-5.26-2.22-7.88-3.33c0.8,0.39,1.46,0.79,2.18,1.31c-2.23-1.72-4.45-3.44-6.68-5.16
				c0.45,0.37,0.87,0.78,1.25,1.23c-1.72-2.23-3.44-4.45-5.16-6.68c0.18,0.24,0.37,0.48,0.55,0.72
				c5.42,7.14,10.72,12.69,19.72,15.17c7.9,2.18,18.42,1.19,25.43-3.33c7.05-4.54,13.25-11.31,15.17-19.72
				c1.83-8.05,1.91-18.53-3.33-25.43c-4.32-5.69-8.11-10.49-14.32-14.29c-3.29-2.01-7.28-3.58-10.98-4.67
				c-7.98-2.35-17.96-1.88-25.77,0.67c-18.06,5.9-34.04,23.24-32.43,43.36c0.71,8.87,3.2,16.87,9.67,23.33
				c5.72,5.72,15.11,10.03,23.33,9.67c8.53-0.38,17.39-3.19,23.33-9.67C804.96,1256.91,809.67,1248.38,808.97,1239.73
				L808.97,1239.73z"/>
		</g>
	</g>
	<g class="st1">
		<g>
			<path class="st4" d="M2179.18,1952.36c-75.8-2.85-151.63,2.5-226.45,14.93c-12.52,2.08-23.61,4.97-33.54,13.61
				c-10.3,8.97-15.19,22.94-15.26,36.36c-0.07,15.02,4.86,31.12,8.85,45.55c8.1,29.3,20.13,58.28,40.92,80.93
				c12.58,13.7,28.89,23.71,46.54,29.41c16.16,5.22,33.61,4.91,49.42,11.37c-2.63-1.11-5.26-2.22-7.88-3.33
				c3.74,1.65,7.22,3.62,10.49,6.08c-2.23-1.72-4.45-3.44-6.68-5.16c3.64,2.92,6.77,6.26,9.63,9.94c-1.72-2.23-3.44-4.45-5.16-6.68
				c8.28,11.03,13.62,23.89,21.77,35c7.04,9.59,14.04,17.25,24.04,23.88c11.22,7.43,24.4,9.91,37.51,11.23
				c20.67,2.08,42.01,1.7,62.77,1.65c20.68-0.05,41.29-1,61.8-3.76c37.08-4.98,76.77-17.69,101.19-47.88
				c14.29-17.66,23.73-37.57,29.83-59.46c5.86-21.08,9.22-42.95,11.34-64.69c2.19-22.43,2.21-45.07,0.07-67.5
				c-1.29-13.52-3.13-27.03-5.64-40.37c-1.91-10.13-5.25-20.12-6.67-30.31c0.39,2.92,0.79,5.85,1.18,8.77
				c-0.45-3.97-0.49-7.9,0.03-11.86c-0.39,2.92-0.79,5.85-1.18,8.77c0.35-2.17,0.86-4.23,1.66-6.28c-1.11,2.63-2.22,5.26-3.33,7.88
				c0.54-1.19,1.14-2.27,1.89-3.34c-1.72,2.23-3.44,4.45-5.16,6.68c0.59-0.71,1.16-1.29,1.87-1.89c-2.23,1.72-4.45,3.44-6.68,5.16
				c0.46-0.35,0.95-0.66,1.47-0.91c-2.63,1.11-5.26,2.22-7.88,3.33c0.87-0.37,1.63-0.59,2.55-0.76c-2.92,0.39-5.85,0.79-8.77,1.18
				c1.04-0.09,1.95-0.06,2.99,0.05c-2.92-0.39-5.85-0.79-8.77-1.18c0.82,0.12,1.62,0.35,2.39,0.67c-2.63-1.11-5.26-2.22-7.88-3.33
				c0.75,0.32,1.45,0.71,2.11,1.18c-2.23-1.72-4.45-3.44-6.68-5.16c1.01,0.8,1.83,1.59,2.68,2.55c-1.72-2.23-3.44-4.45-5.16-6.68
				c1.63,2.12,2.86,4.37,3.95,6.81c-1.11-2.63-2.22-5.26-3.33-7.88c8.08,19.6,13.76,40.61,19.33,61.03
				c5.45,19.98,10.82,40.29,13.65,60.84c-0.39-2.92-0.79-5.85-1.18-8.77c1.24,9.72,1.71,19.47,0.56,29.23
				c0.39-2.92,0.79-5.85,1.18-8.77c-0.79,5.77-2.15,11.32-4.27,16.75c1.11-2.63,2.22-5.26,3.33-7.88
				c-2.03,4.81-4.59,9.21-7.75,13.37c1.72-2.23,3.44-4.45,5.16-6.68c-9.56,12.02-21.37,21.57-30.12,34.38
				c-4.84,7.08-8.5,15.62-9.94,24.08c-1.62,9.51-1.86,19.03-3.12,28.55c0.39-2.92,0.79-5.85,1.18-8.77c-0.49,3.07-1.19,6-2.31,8.92
				c1.11-2.63,2.22-5.26,3.33-7.88c-0.96,2.14-2.07,4.09-3.48,5.96c1.72-2.23,3.44-4.45,5.16-6.68c-1.17,1.42-2.42,2.68-3.83,3.86
				c2.23-1.72,4.45-3.44,6.68-5.16c-2.01,1.53-4.1,2.74-6.41,3.76c2.63-1.11,5.26-2.22,7.88-3.33c-3.85,1.55-7.84,2.43-11.94,3.02
				c2.92-0.39,5.85-0.79,8.77-1.18c-10.17,1.3-20.47,0.92-30.65,2.1c-17.7,2.06-33.13,6.68-46.6,18.96
				c-12.79,11.67-12.72,34.99,0,46.67c13.67,12.55,33.03,12.44,46.67,0c0.56-0.53,1.14-1.04,1.74-1.52
				c-2.23,1.72-4.45,3.44-6.68,5.16c2.43-1.87,5.01-3.33,7.83-4.53c-2.63,1.11-5.26,2.22-7.88,3.33c4.04-1.56,8.21-2.48,12.49-3.1
				c-2.92,0.39-5.85,0.79-8.77,1.18c19.05-2.43,38.4-0.48,56.51-8.12c12.26-5.17,23.37-14.1,29.19-26.37
				c4.53-9.55,6.16-17.32,7.33-27.83c0.59-5.28,0.76-10.6,1.38-15.87c-0.39,2.92-0.79,5.85-1.18,8.77
				c0.51-3.61,1.27-7.03,2.56-10.44c-1.11,2.63-2.22,5.26-3.33,7.88c1.69-3.98,3.9-7.56,6.51-10.99c-1.72,2.23-3.44,4.45-5.16,6.68
				c6.72-8.44,15.09-15.35,21.95-23.67c9.92-12.04,17.69-25.63,20.67-41.13c5.49-28.55,0.18-56.69-6.41-84.58
				c-6.21-26.3-13.71-52.3-22.46-77.87c-6.12-17.88-13.12-34.95-31.77-42.82c-20.11-8.49-43.47-0.6-53.96,18.78
				c-8.07,14.9-8.32,32.83-4.62,49.01c3.31,14.45,6.68,28.69,8.71,43.39c-0.39-2.92-0.79-5.85-1.18-8.77
				c4.14,31.08,4.19,62.52,0.14,93.62c0.39-2.92,0.79-5.85,1.18-8.77c-2.92,21.57-7.22,43.43-15.52,63.64
				c1.11-2.63,2.22-5.26,3.33-7.88c-3.49,8.2-7.7,15.95-13.04,23.1c1.72-2.23,3.44-4.45,5.16-6.68
				c-4.73,6.08-10.1,11.42-16.19,16.15c2.23-1.72,4.45-3.44,6.68-5.16c-7.19,5.4-14.99,9.72-23.24,13.25
				c2.63-1.11,5.26-2.22,7.88-3.33c-14.2,5.87-29.17,9.27-44.36,11.37c2.92-0.39,5.85-0.79,8.77-1.18
				c-19.67,2.59-39.58,3.18-59.4,3.17c-20.65,0-41.96,0.48-62.5-1.85c2.92,0.39,5.85,0.79,8.77,1.18
				c-4.58-0.63-8.95-1.63-13.24-3.35c2.63,1.11,5.26,2.22,7.88,3.33c-2.82-1.28-5.4-2.77-7.9-4.61c2.23,1.72,4.45,3.44,6.68,5.16
				c-3.58-2.8-6.65-6.04-9.45-9.62c1.72,2.23,3.44,4.45,5.16,6.68c-5.96-7.91-10.39-16.77-15.43-25.26
				c-6.75-11.38-14.75-21.83-25.23-29.93c-12.12-9.36-26.36-14.64-41.35-17.33c-11.84-2.13-23.81-3.44-35.06-7.96
				c2.63,1.11,5.26,2.22,7.88,3.33c-6.04-2.56-11.61-5.82-16.81-9.81c2.23,1.72,4.45,3.44,6.68,5.16
				c-5.77-4.58-10.82-9.85-15.32-15.66c1.72,2.23,3.44,4.45,5.16,6.68c-6.81-9.01-12.13-18.95-16.57-29.31
				c1.11,2.63,2.22,5.26,3.33,7.88c-8.17-19.47-14.47-40.83-17.68-61.73c0.39,2.92,0.79,5.85,1.18,8.77
				c-0.36-2.81-0.51-5.54-0.28-8.37c-0.39,2.92-0.79,5.85-1.18,8.77c0.25-1.78,0.65-3.41,1.29-5.09c-1.11,2.63-2.22,5.26-3.33,7.88
				c0.35-0.79,0.77-1.55,1.26-2.26c-1.72,2.23-3.44,4.45-5.16,6.68c0.9-1.16,1.75-2.01,2.89-2.95c-2.23,1.72-4.45,3.44-6.68,5.16
				c0.8-0.58,1.65-1.07,2.55-1.48c-2.63,1.11-5.26,2.22-7.88,3.33c7.18-2.95,15.55-3.53,23.16-4.74c8.67-1.38,17.36-2.65,26.05-3.83
				c-2.92,0.39-5.85,0.79-8.77,1.18c61.26-8.19,123.13-11.14,184.88-8.82c17.27,0.65,33.78-15.64,33-33
				C2211.35,1966.93,2197.68,1953.06,2179.18,1952.36L2179.18,1952.36z"/>
		</g>
	</g>
	<g class="st1">
		<g>
			<path class="st4" d="M2267.42,1928.68c-59.64,4.25-118.58,16.47-174.52,37.7c-8.24,3.13-15.13,7.31-19.72,15.17
				c-4.14,7.07-5.89,17.5-3.33,25.43c5.08,15.71,23.31,29.6,40.59,23.05c41.46-15.73,84.58-26.69,128.51-32.71
				c-2.92,0.39-5.85,0.79-8.77,1.18c12.37-1.65,24.78-2.92,37.24-3.81c8.83-0.63,16.92-3.26,23.33-9.67
				c5.72-5.72,10.03-15.11,9.67-23.33C2299.67,1944.85,2285.86,1927.36,2267.42,1928.68L2267.42,1928.68z"/>
		</g>
	</g>
	<g class="st1">
		<g>
			<path class="st4" d="M2116.76,2052.21c46.49,2.13,92.97,4.27,139.46,6.4c17.27,0.79,33.77-15.75,33-33
				c-0.83-18.56-14.5-32.15-33-33c-46.49-2.13-92.97-4.27-139.46-6.4c-17.27-0.79-33.77,15.75-33,33
				C2084.59,2037.77,2098.26,2051.36,2116.76,2052.21L2116.76,2052.21z"/>
		</g>
	</g>
	<g class="st1">
		<g>
			<path d="M1195.7,861.87c20.67-1.7,41.75-4.57,61.4-11.54c19.53-6.93,39.17-15.37,56.47-26.96c16.93-11.34,33.59-24.28,47.4-39.39
				c13.86-15.18,26.95-32.13,36.53-50.43c10.37-19.82,16.62-41.11,25.11-61.67c-2.55,6.05-5.11,12.1-7.66,18.15
				c2.83-6.67,6.08-13.09,10.48-18.86c-3.96,5.13-7.92,10.25-11.88,15.38c2.17-2.7,4.52-5.15,7.19-7.35
				c-5.13,3.96-10.25,7.92-15.38,11.88c2.8-2.16,5.75-3.9,9-5.31c-6.05,2.55-12.1,5.11-18.15,7.66c3.08-1.18,6.16-1.98,9.43-2.44
				c-6.73,0.9-13.47,1.81-20.2,2.71c3.78-0.37,7.43-0.28,11.2,0.21c-6.73-0.9-13.47-1.81-20.2-2.71c5.53,0.89,10.79,2.53,15.98,4.65
				c-6.05-2.55-12.1-5.11-18.15-7.66c14.98,6.44,28.4,16.07,41.97,24.99c14.33,9.43,28.59,18.96,42.78,28.6
				c28.47,19.33,56.98,38.78,84.6,59.33c-5.13-3.96-10.25-7.92-15.38-11.88c3.86,3.03,7.29,6.44,10.31,10.31
				c-3.96-5.13-7.92-10.25-11.88-15.38c1.68,2.3,3.14,4.65,4.35,7.23c-2.55-6.05-5.11-12.1-7.66-18.15
				c0.82,1.99,1.41,3.94,1.73,6.07c-0.9-6.73-1.81-13.47-2.71-20.2c0.09,1.21,0.08,2.29-0.03,3.5c0.9-6.73,1.81-13.47,2.71-20.2
				c-0.23,1.19-0.52,2.18-0.98,3.3c2.55-6.05,5.11-12.1,7.66-18.15c-0.34,0.73-0.76,1.41-1.24,2.05
				c3.96-5.13,7.92-10.25,11.88-15.38c-0.93,1.12-1.82,1.96-2.97,2.87c5.13-3.96,10.25-7.92,15.38-11.88
				c-0.85,0.59-1.75,1.1-2.69,1.53c6.05-2.55,12.1-5.11,18.15-7.66c-10.02,4.17-21.57,5.77-32.25,7.25
				c6.73-0.9,13.47-1.81,20.2-2.71c-18.99,2.46-38.12,2.44-57.11-0.04c6.73,0.9,13.47,1.81,20.2,2.71
				c-19.71-2.74-38.61-8.25-56.94-15.97c6.05,2.55,12.1,5.11,18.15,7.66c-19.74-8.42-39.11-17.92-59.41-24.91
				c-6.66-2.29-13.44-4.19-20.39-5.36c-12.55-2.11-26.22-4.52-39.2-4.04c-9.38,0.35-18.79,1.95-28.03,3.38
				c-3.34,0.52-6.62,1.15-9.87,2.11c-11.8,3.48-23.99,8.17-34.17,15.22c-9.91,6.86-19.96,14.33-27.93,23.51
				c-8.01,9.22-15.14,19.2-22.6,28.86c3.96-5.13,7.92-10.25,11.88-15.38c-4.9,6.32-9.98,12.47-16.21,17.53
				c5.13-3.96,10.25-7.92,15.38-11.88c-3.07,2.36-6.27,4.32-9.78,5.94c6.05-2.55,12.1-5.11,18.15-7.66c-4.82,2-9.77,3.19-14.91,3.96
				c6.73-0.9,13.47-1.81,20.2-2.71c-12.48,1.61-25.28,1.78-37.85,1.94c-12.25,0.16-24.5-0.25-36.65-1.84
				c6.73,0.9,13.47,1.81,20.2,2.71c-11.28-1.57-22.32-4.21-32.85-8.62c6.05,2.55,12.1,5.11,18.15,7.66
				c-7.09-3.1-13.7-6.92-19.85-11.63c5.13,3.96,10.25,7.92,15.38,11.88c-0.41-0.33-0.82-0.65-1.23-0.98
				c-6.88-7.41-15.04-12.65-24.46-15.71c-9.06-4.76-18.82-6.94-29.28-6.55c-10.46-0.39-20.22,1.79-29.28,6.55
				c-9.42,3.07-17.57,8.3-24.46,15.71c-13.3,14.48-23.17,33.5-22.26,53.74c0.9,6.73,1.81,13.47,2.71,20.2
				c3.61,12.87,10.13,24.05,19.55,33.54c9.62,7.65,19.23,15.88,30.24,21.56c10.97,5.66,22.62,10.6,34.44,14.29
				c6.18,1.93,12.51,3.33,18.9,4.35c12.66,2.01,25.48,3.86,38.31,4.66c13.57,0.84,27.19,0.5,40.76-0.09
				c13.39-0.58,26.43-2.06,39.73-4.1c3.41-0.52,6.79-1.15,10.09-2.17c1.64-0.51,3.23-1.15,4.83-1.79c7.21-2.89,14.76-5.6,21.59-9.37
				c8.02-4.43,15.32-10.81,22.27-16.56c2.51-2.08,4.85-4.31,7.07-6.7c8.74-9.46,16.17-20.15,24-30.33
				c-3.96,5.13-7.92,10.25-11.88,15.38c5.24-6.78,10.64-13.4,17.36-18.78c-5.13,3.96-10.25,7.92-15.38,11.88
				c3.7-2.81,7.64-5.1,11.88-6.99c-6.05,2.55-12.1,5.11-18.15,7.66c5.3-2.18,10.73-3.6,16.4-4.45c-6.73,0.9-13.47,1.81-20.2,2.71
				c7.91-1,15.78-0.84,23.68,0.17c-6.73-0.9-13.47-1.81-20.2-2.71c13.81,2,26.87,6.72,39.68,12.11c-6.05-2.55-12.1-5.11-18.15-7.66
				c23.8,10.15,47.15,21.99,72.17,28.88c12.55,3.46,25.25,5.35,38.14,7.08c12.89,1.73,25.64,3.28,38.66,3.29
				c13.02,0.01,25.77-1.51,38.66-3.25c12.72-1.71,25.58-3.35,37.92-7.03c31.53-9.42,56.26-31.7,65.29-63.84
				c4.21-14.98,3.73-32.63-0.48-47.49c-2.04-7.21-5.56-14.51-8.77-21.21c-1.02-2.12-2.16-4.11-3.49-6.05
				c-5.27-7.67-11.61-16.45-18.68-23.14c-7.58-7.17-16.34-13.17-24.79-19.27c-8.67-6.24-17.36-12.45-26.08-18.61
				c-17.44-12.33-35-24.5-52.67-36.5s-35.45-23.85-53.33-35.53c-7.98-5.21-15.93-10.55-24.41-14.93
				c-9.37-4.83-19.27-8.93-29.13-12.59c-10.55-3.92-21.9-4.87-33.01-6.11c-11-1.22-22.2,0.69-32.99,2.73
				c-10.38,1.96-20.41,6.58-29.61,11.6c-1.91,1.04-3.65,2.29-5.39,3.59c-6.32,4.72-13.11,9.29-18.73,14.88
				c-6.98,6.95-12.99,15.28-18.41,23.47c-7.98,12.08-13.02,26.43-18.05,39.82c-3.14,8.35-5.84,16.87-9.27,25.12
				c2.55-6.05,5.11-12.1,7.66-18.15c-5.55,12.99-12.72,25.12-21.32,36.32c3.96-5.13,7.92-10.25,11.88-15.38
				c-9.01,11.52-19.35,21.83-30.87,30.84c5.13-3.96,10.25-7.92,15.38-11.88c-11.98,9.22-24.98,16.89-38.87,22.85
				c6.05-2.55,12.1-5.11,18.15-7.66c-13.47,5.65-27.51,9.58-41.99,11.6c6.73-0.9,13.47-1.81,20.2-2.71
				c-2.9,0.38-5.79,0.68-8.71,0.92c-10.46-0.39-20.22,1.79-29.28,6.55c-9.42,3.07-17.57,8.3-24.46,15.71
				c-7.41,6.88-12.65,15.04-15.71,24.46c-4.76,9.06-6.94,18.82-6.55,29.28c0.88,19.66,7.34,40.04,22.26,53.74
				C1156.11,852.6,1175.8,863.51,1195.7,861.87L1195.7,861.87z"/>
		</g>
	</g>
	<g class="st1">
		<g>
			<path d="M742.49,1420.07c4.94,69.42,18.58,138.35,44.03,203.23c13.7,34.93,29.11,69.22,47.9,101.72
				c10.2,17.64,21.04,35.82,35.44,50.37c26.42,26.69,64.12,40.17,101.16,29.99c20.28-5.58,36.26-18.32,47.49-35.73
				c3.24-5.03,7.4-16.69,9.85-24.3c2.77-8.61,3.93-17.24,5.13-26.21c3.48-25.87,1.25-51.39-11.75-74.77
				c-17.04-30.66-52.22-50.74-87.36-49.45c-25.11,0.92-50.34,10.13-70.54,25.04c-20,14.76-33.59,28.47-48.24,48.71
				c-10.34,14.29-16.85,30.33-23.52,46.59c-11.83,28.84-15.99,59.71-19.61,90.48c-3.44,29.2-3.91,58.69-5.1,88.04
				c-1.47,36.14-2.93,72.27-4.4,108.41c-0.72,17.81-1.45,35.63-2.17,53.44c-0.53,12.94,0.03,25.99,3.19,38.65
				c5.88,23.51,22.54,43.98,43.25,56.08c23.85,13.93,52.53,13.34,79.25,14.74c17.74,0.93,35.49,1.77,53.25,2.54
				c144.05,6.21,288.33,7.1,432.44,2.67c72.06-2.21,144.07-5.76,216-10.64c70.09-4.75,140.42-12.69,210.76-9.71
				c17.32,0.74,34.59,2.21,51.78,4.51c-6.73-0.9-13.47-1.81-20.2-2.71c49.39,6.92,96.9,22.37,145.71,32.1
				c17.85,3.56,35.88,6.07,53.94,8.27c17.58,2.14,31.48,1.91,49.4-1.15c18.92-3.24,38.33-13.23,51.93-26.85
				c10.41-10.43,19.39-23.94,23.2-38.39c4.52-17.14,3.75-30.65,0.55-48.11c-4.42-24.07-29.31-48.29-53.08-53.08
				c-28.06-5.66-55.4-14.05-81.81-25.08c6.05,2.55,12.1,5.11,18.15,7.66c-13.58-5.78-26.84-12.21-39.79-19.3
				c-12.79,47.21-25.57,94.42-38.36,141.62c54.19-2.71,108.39-5.41,162.58-8.12c26.13-1.3,52.49-1.69,78.53-4.15
				c24.02-2.26,44.35-6.31,65.72-18.33c15.39-8.66,28.41-21.25,42.25-32.14c-5.13,3.96-10.25,7.92-15.38,11.88
				c29.21-22.41,62.84-37.49,96.32-52.27c-30.7-3.96-61.4-7.92-92.1-11.88c0.38,0.49,0.77,0.98,1.15,1.47
				c-3.96-5.13-7.92-10.25-11.88-15.38c4.82,6.42,8.81,13.26,12.07,20.6c-2.55-6.05-5.11-12.1-7.66-18.15
				c3.82,9.04,6.35,18.41,7.77,28.12c-0.91-6.73-1.81-13.47-2.71-20.2c1.43,11.04,1.37,22.08-0.05,33.12
				c0.91-6.73,1.81-13.47,2.71-20.2c-1.58,11.08-4.48,21.8-8.7,32.16c2.55-6.05,5.11-12.1,7.66-18.15
				c-4.1,9.66-9.25,18.72-15.56,27.12c3.96-5.13,7.92-10.25,11.88-15.38c-5.65,7.26-11.99,13.76-19.19,19.49
				c5.13-3.96,10.25-7.92,15.38-11.88c-6.87,5.26-14.22,9.6-22.17,13.03c6.05-2.55,12.1-5.11,18.16-7.66
				c-12.52,5.1-25.57,8.07-38.93,9.95c6.73-0.91,13.47-1.81,20.2-2.71c-57.96,7.57-118.08,1.88-169.8,34.74
				c-26.04,16.54-40.43,44.86-36.28,75.73c1.84,13.67,6.52,25.02,14.96,35.95c9.75,12.62,23.53,23.5,39.48,27.24
				c45.45,10.63,92.85,15.95,139.53,14.1c19.96-0.79,39.42-7.94,53.74-22.26c13.18-13.18,23.11-34.81,22.26-53.74
				c-0.88-19.66-7.34-40.04-22.26-53.74c-14.53-13.34-33.45-23.06-53.74-22.26c-25.44,1.01-50.84-0.14-76.08-3.4
				c6.73,0.91,13.47,1.81,20.2,2.71c-14.55-1.98-28.95-4.64-43.25-7.98c6.05,46.3,12.1,92.61,18.16,138.91
				c5.28-3.35,10.74-6.2,16.49-8.66c-6.05,2.55-12.1,5.11-18.15,7.66c12.3-4.94,25.13-7.75,38.24-9.53
				c-6.73,0.91-13.47,1.81-20.2,2.71c32.25-4.04,64.66-4.31,96.91-8.89c13.37-1.9,26.38-4.87,38.93-9.95
				c10.01-4.05,20.38-7.96,29.74-13.47c9.23-5.44,17.66-12.45,25.98-19.1c23.08-18.48,39.12-44.16,50.47-71.06
				c11.42-27.05,18.09-56.78,16.13-86.34c-1.14-17.11-3.25-35.2-9.28-51.46c-3.96-10.69-8.23-21.44-13.72-31.46
				c-5.77-10.54-13.74-19.83-21.09-29.22c-5.13-3.96-10.25-7.92-15.38-11.88c-8.72-5.55-18.14-8.56-28.26-9.02
				c-6.73-1.81-13.47-1.81-20.2,0c-10.11,0.46-19.53,3.46-28.26,9.02c-20.55,9.07-41.14,18.17-60.78,29.1
				c-24.31,13.52-45.28,31.11-67.16,48.14c5.13-3.96,10.25-7.92,15.38-11.88c-5.52,4.15-11.18,7.79-17.54,10.54
				c6.05-2.55,12.1-5.11,18.15-7.66c-5.83,2.19-11.67,3.47-17.83,4.3c6.73-0.9,13.47-1.81,20.2-2.71
				c-19.32,2.14-38.96,2.33-58.37,3.3c-20.77,1.04-41.53,2.07-62.3,3.11c-41.03,2.05-82.05,4.1-123.08,6.14
				c-17.18,0.86-32.34,5.73-46.05,16.32c-12.56,9.7-23.61,23.56-27.24,39.48c-7.36,32.3,4.59,69.22,34.93,85.83
				c43.57,23.86,91.01,42.22,139.76,52.04c-17.69-17.69-35.39-35.39-53.08-53.08c0.1,0.56,0.21,1.12,0.31,1.68
				c-0.91-6.73-1.81-13.47-2.71-20.2c0.13,1.05,0.12,2.1-0.03,3.15c0.9-6.73,1.81-13.47,2.71-20.2c-0.15,0.99-0.42,1.95-0.83,2.86
				c2.55-6.05,5.11-12.1,7.66-18.16c-0.41,0.92-0.91,1.78-1.52,2.57c3.96-5.13,7.92-10.25,11.88-15.38
				c-1.07,1.26-2.11,2.27-3.39,3.31c5.13-3.96,10.25-7.92,15.38-11.88c-1.95,1.35-3.93,2.43-6.1,3.39
				c6.05-2.55,12.1-5.11,18.15-7.66c-3.6,1.38-7.22,2.29-11.03,2.88c6.73-0.9,13.47-1.81,20.2-2.71
				c-10.59,1.22-21.52-0.58-32.02-1.92c6.73,0.9,13.47,1.81,20.2,2.71c-36.89-5-72.77-14.89-108.86-23.71
				c-41.52-10.14-83.7-17.37-126.39-20.1c-76.74-4.91-153.69,4.31-230.19,9.41c-155.51,10.37-311.44,14.54-467.29,12.49
				c-43.66-0.58-87.31-1.64-130.94-3.19c-21.82-0.78-43.63-1.67-65.44-2.69c-21.37-1-43.2-1.03-64.45-3.59
				c6.73,0.9,13.47,1.81,20.2,2.71c-2.23-0.38-4.26-0.84-6.42-1.52c6.05,2.55,12.1,5.11,18.15,7.66c-2.1-0.89-3.68-1.77-5.5-3.14
				c5.13,3.96,10.25,7.92,15.38,11.88c-0.5-0.51-1.01-1.02-1.51-1.53c3.96,5.13,7.92,10.25,11.88,15.38
				c-0.94-1.12-1.7-2.36-2.28-3.71c2.55,6.05,5.11,12.1,7.66,18.15c-0.79-2.18-1.25-4.1-1.59-6.39c0.9,6.73,1.81,13.47,2.71,20.2
				c-0.91-11.55,0.45-23.46,0.92-35.02c0.5-12.21,0.99-24.43,1.49-36.64c1.01-24.94,2.02-49.88,3.04-74.82
				c1.7-41.94,1.71-84.36,7.29-126.03c-0.9,6.73-1.81,13.47-2.71,20.2c2.99-21.48,7.65-42.73,15.95-62.82
				c-2.55,6.05-5.11,12.1-7.66,18.15c4.68-10.95,10.39-21.29,17.61-30.77c-3.96,5.13-7.92,10.25-11.88,15.38
				c5.65-7.16,12-13.54,19.22-19.12c-5.13,3.96-10.25,7.92-15.38,11.88c6.22-4.61,12.81-8.54,19.93-11.6
				c-6.05,2.55-12.1,5.11-18.15,7.66c3.22-1.22,6.38-2.15,9.77-2.79c-6.73,0.9-13.47,1.81-20.2,2.71c2.57-0.28,4.84-0.34,7.42-0.16
				c-6.73-0.9-13.47-1.81-20.2-2.71c2.31,0.41,4.31,0.93,6.48,1.8c-6.05-2.55-12.1-5.11-18.15-7.66c1.55,0.77,2.9,1.56,4.32,2.56
				c-5.13-3.96-10.25-7.92-15.38-11.88c1.26,1.06,2.33,2.1,3.42,3.33c-3.96-5.13-7.92-10.25-11.88-15.38
				c1.3,1.74,2.34,3.5,3.27,5.47c-2.55-6.05-5.11-12.1-7.66-18.15c1.05,2.66,1.75,5.3,2.24,8.12c-0.9-6.73-1.81-13.47-2.71-20.2
				c0.72,5.61,0.52,11.14-0.2,16.73c0.9-6.73,1.81-13.47,2.71-20.2c-1.17,7.65-3.2,15.04-5.97,22.26
				c17.69-17.69,35.39-35.39,53.08-53.08c-2.14,0.83-3.94,1.32-6.21,1.63c6.73-0.9,13.47-1.81,20.2-2.71
				c-1.37,0.11-2.74,0.07-4.11-0.13c6.73,0.9,13.47,1.81,20.2,2.71c-2.15-0.41-3.99-0.95-6.03-1.74c6.05,2.55,12.1,5.11,18.15,7.66
				c-2.74-1.32-5.2-2.84-7.64-4.65c5.13,3.96,10.25,7.92,15.38,11.88c-4.39-3.6-8.11-7.62-11.6-12.1
				c3.96,5.13,7.92,10.25,11.88,15.38c-21.27-29.03-37.39-63.25-51.41-96.25c2.55,6.05,5.11,12.1,7.66,18.15
				c-21.22-50.52-35.79-103.55-43.29-157.84c0.9,6.73,1.81,13.47,2.71,20.2c-1.78-13.34-3.15-26.72-4.11-40.15
				c-1.45-20.33-7.5-38.98-22.26-53.74c-13.18-13.18-34.81-23.11-53.74-22.26c-19.66,0.88-40.04,7.34-53.74,22.26
				C751.67,1380.58,741.07,1400.06,742.49,1420.07L742.49,1420.07z"/>
		</g>
	</g>
	<g class="st1">
		<g>
			<path class="st2" d="M2351.86,2207.98c18.64-4.53,35.56-14.95,49.46-27.95c10.79-10.09,20.02-22.92,26.05-36.44
				c3.98-8.91,7.92-17.92,10.24-27.43c2.67-10.95,4.01-22.35,4.97-33.54c1.12-13.11,0.55-26.3-0.29-39.41
				c-2.1-32.52-5.96-65.11-11.6-97.21c-6.49-36.89-30.2-73.8-69.28-81.74c-15.78-3.2-29.25-2.74-45,0.56
				c-10.64,2.23-20.81,7.18-30.63,11.54c-12.99,5.77-25.3,12.89-38.39,18.48c4.42-1.86,8.84-3.73,13.26-5.59
				c-34.66,14.58-71.4,22.88-108.57,27.94c4.92-0.66,9.84-1.32,14.75-1.98c-41.7,5.57-83.77,7.27-125.75,9.42
				c-21.2,1.08-42.4,2.28-63.55,4.15c-14.36,1.27-28.92,2.55-43.13,5.01c-19.99,3.46-39.14,16.18-49.46,33.72
				c-16.63,28.28-8.69,63.14,13.99,85.37c7.07,6.93,14.6,12.78,20.79,20.61c-2.89-3.74-5.79-7.49-8.68-11.23
				c6.12,7.95,11.1,16.6,15.01,25.83c-1.86-4.42-3.73-8.84-5.59-13.26c3.99,9.74,6.69,19.87,8.14,30.3
				c-0.66-4.92-1.32-9.84-1.98-14.75c1.33,10.44,1.37,20.91,0.05,31.35c0.66-4.92,1.32-9.84,1.98-14.75
				c-1.31,9.48-3.73,18.68-7.34,27.54c1.86-4.42,3.73-8.84,5.59-13.26c-2.44,5.77-5.21,11.69-9,16.71
				c2.89-3.74,5.79-7.49,8.68-11.23c-1.51,1.79-3.14,3.34-4.99,4.78c3.74-2.89,7.49-5.79,11.23-8.68c-1.48,1.03-2.96,1.88-4.62,2.6
				c4.42-1.86,8.84-3.73,13.26-5.59c-1.18,0.41-2.23,0.68-3.46,0.86c4.92-0.66,9.84-1.32,14.75-1.98c-0.73,0.07-1.45,0.04-2.18-0.08
				c4.92,0.66,9.84,1.32,14.75,1.98c-0.34-0.09-0.68-0.18-1.02-0.27c4.42,1.86,8.84,3.73,13.26,5.59c-0.68-0.24-1.31-0.58-1.87-1.03
				c3.74,2.89,7.49,5.79,11.23,8.68c-0.28-0.26-0.55-0.52-0.83-0.78c2.89,3.74,5.79,7.49,8.68,11.23c-0.62-0.69-1.11-1.47-1.46-2.33
				c1.86,4.42,3.73,8.84,5.59,13.26c-0.38-0.97-0.62-1.97-0.74-3c0.66,4.92,1.32,9.84,1.98,14.75c-0.74-7.86-0.72-15.85-1.03-23.74
				c-0.29-7.3-1.12-14.82-0.23-22.1c-0.66,4.92-1.32,9.84-1.98,14.75c0.28-1.54,0.63-2.92,1.14-4.39
				c-1.86,4.42-3.73,8.84-5.59,13.26c0.66-1.45,1.33-2.59,2.29-3.86c-2.89,3.74-5.79,7.49-8.68,11.23c0.64-0.75,1.36-1.43,2.15-2.03
				c-3.74,2.89-7.49,5.79-11.23,8.68c1.27-0.86,2.46-1.52,3.86-2.15c-4.42,1.86-8.84,3.73-13.26,5.59
				c10.81-4.02,23.61-4.28,34.97-5.89c12.79-1.81,25.58-3.62,38.36-5.43c24.92-3.53,49.84-7.05,74.76-10.58
				c24.64-3.49,49.3-6.85,73.91-10.49c21.01-3.11,42.02-6.7,62.49-12.45c27.13-7.61,54.46-18.67,77.47-35.13
				c3.74-2.89,7.49-5.79,11.23-8.68c5.41-5.03,9.24-10.98,11.48-17.86c4.65-11.03,6.59-24.43,2.8-36.14
				c-7.43-22.95-28.42-41.32-53.52-40.75c-77.63,1.78-154.97,9.34-231.66,21.43c-20.69,3.26-41.31,6.94-61.86,10.98
				c-12.52,2.47-27.28,14.36-33.17,25.51c-1.86,4.42-3.73,8.84-5.59,13.26c-2.31,7.38-2.64,14.75-0.99,22.13
				c1.56,11.65,6.35,23.68,15.26,31.87c3.74,2.89,7.49,5.79,11.23,8.68c8.66,5.02,17.99,7.55,28.01,7.58
				c71.86,9.62,143.72,19.24,215.58,28.86c20.3,2.72,40.61,5.44,60.91,8.15c-4.92-0.66-9.84-1.32-14.75-1.98
				c6.42,0.91,12.64,2.53,18.63,5.02c-4.42-1.86-8.84-3.73-13.26-5.59c3.42,1.52,6.64,3.3,9.61,5.59
				c-3.74-2.89-7.49-5.79-11.23-8.68c1.46,1.22,2.78,2.5,3.99,3.97c-2.89-3.74-5.79-7.49-8.68-11.23c0.86,1.16,1.59,2.33,2.24,3.62
				c-1.86-4.42-3.73-8.84-5.59-13.26c0.55,1.33,0.94,2.62,1.21,4.03c-0.66-4.92-1.32-9.84-1.98-14.75c0.18,1.51,0.18,2.93,0.03,4.44
				c0.66-4.92,1.32-9.84,1.98-14.75c-0.07,0.39-0.13,0.78-0.2,1.18c12.92-12.92,25.84-25.84,38.76-38.76
				c-18.81,3.09-37.67,5.91-56.56,8.46c4.92-0.66,9.84-1.32,14.75-1.98c-75.59,10.13-151.73,15.87-227.99,17.16
				c-19.66,0.33-37.92,10.39-47.92,27.49c-5.02,8.66-7.55,17.99-7.58,28.01c0.03,10.02,2.56,19.36,7.58,28.01
				c8.4,11.46,16.57,21.47,29.59,28.13c8.68,4.44,17.99,8.23,27.61,10.11c10.75,2.1,21.96,2.53,32.19,6.73
				c-4.42-1.86-8.84-3.73-13.26-5.59c2.28,1.01,4.38,2.18,6.4,3.64c-3.74-2.89-7.49-5.79-11.23-8.68c1.68,1.32,3.15,2.77,4.5,4.43
				c-2.89-3.74-5.79-7.49-8.68-11.23c1.93,2.61,3.22,5.48,4.59,8.41c3.32,7.14,8.26,13.51,13.72,19.16
				c15.1,15.64,35.16,19.42,55.75,21.25c18.59,1.65,37.26,2.35,55.92,2.16c41.54-0.44,83.32-5.32,123.99-13.72
				c15.93-3.29,31.29-10.24,42.39-22.54c11.02-12.22,18.36-27.41,18.15-44.21c-0.12-9.83-2.8-21.29-8.12-29.61
				c-5.79-9.06-12.84-15.62-21.73-21.57c-11.53-7.73-29.72-9.19-42.77-5.59c-12.87,3.55-26.83,13.5-33.17,25.51
				c-6.81,12.88-10.22,28.48-5.59,42.77c4.61,14.24,13.01,24.79,25.51,33.17c0.3,0.2,0.6,0.4,0.9,0.61
				c-3.74-2.89-7.49-5.79-11.23-8.68c0.23,0.23,0.45,0.45,0.68,0.68c-2.89-3.74-5.79-7.49-8.68-11.23c0.16,0.25,0.31,0.5,0.47,0.75
				c-1.86-4.42-3.73-8.84-5.59-13.26c0.09,0.27,0.18,0.53,0.27,0.8c-0.66-4.92-1.32-9.84-1.98-14.75c0.11,0.58,0.11,1.15-0.01,1.72
				c0.66-4.92,1.32-9.84,1.98-14.75c-0.08,0.3-0.17,0.6-0.25,0.9c1.86-4.42,3.73-8.84,5.59-13.26c-0.45,1.03-0.93,1.84-1.59,2.76
				c2.89-3.74,5.79-7.49,8.68-11.23c-1.09,1.29-2.25,2.37-3.57,3.41c3.74-2.89,7.49-5.79,11.23-8.68c-1.43,0.99-2.87,1.81-4.47,2.52
				c4.42-1.86,8.84-3.73,13.26-5.59c-7.56,2.7-16.19,3.66-24.07,5.08c-8.55,1.54-17.13,2.87-25.74,4.03
				c4.92-0.66,9.84-1.32,14.75-1.98c-42.87,5.63-87.08,7.2-130.12,2.31c4.92,0.66,9.84,1.32,14.75,1.98
				c-2.52-0.35-4.89-0.86-7.27-1.74c4.42,1.86,8.84,3.73,13.26,5.59c-1.4-0.66-2.53-1.33-3.78-2.26c3.74,2.89,7.49,5.79,11.23,8.68
				c-0.74-0.63-1.4-1.32-2-2.08c2.89,3.74,5.79,7.49,8.68,11.23c-2.47-3.42-3.83-7.35-5.8-11.04c-1.82-3.4-4.33-6.27-6.7-9.33
				c-2.25-2.91-4.44-6.21-7.23-8.72c-11.33-10.17-23.97-17.34-38.73-21.37c-12.64-3.45-26.17-3.09-38.37-8.2
				c4.42,1.86,8.84,3.73,13.26,5.59c-2.29-1.04-4.4-2.23-6.43-3.72c3.74,2.89,7.49,5.79,11.23,8.68c-1.7-1.35-3.18-2.83-4.54-4.52
				c2.89,3.74,5.79,7.49,8.68,11.23c-0.22-0.3-0.44-0.6-0.65-0.89c-15.97,27.84-31.95,55.67-47.92,83.51
				c74.61-1.26,149.12-6.74,223.1-16.51c25.45-3.36,50.87-6.94,76.2-11.09c17.08-2.8,35.93-21.71,38.76-38.76
				c2.22-13.38,3.73-23.83-0.3-37.2c-3.67-12.18-9.92-22.59-18.71-31.74c-5.18-5.39-11.76-10.24-18.27-14.02
				c-7.27-4.22-15.29-7.34-23.25-10c-13.55-4.53-28.18-5.11-42.25-6.99c-11.79-1.58-23.58-3.16-35.37-4.73
				c-48.46-6.49-96.92-12.98-145.38-19.46c-27.33-3.66-54.66-7.32-81.99-10.98c4.92,36.34,9.84,72.68,14.75,109.02
				c32.75-6.45,65.69-11.91,98.77-16.37c-4.92,0.66-9.84,1.32-14.75,1.98c59.69-7.98,119.79-12.67,179.99-14.06
				c-9.34-34.47-18.67-68.95-28.01-103.42c-10.77,7.7-22.35,14.02-34.51,19.24c4.42-1.86,8.84-3.73,13.26-5.59
				c-38.93,16.35-81.36,21.25-122.82,27.11c-48.2,6.82-96.4,13.64-144.6,20.46c-12.13,1.72-24.27,3.37-36.4,5.15
				c-8.72,1.28-17.28,4.32-24.99,8.61c-13.92,7.74-23.57,19.57-29.65,33.97c-4.32,10.23-6.33,20.8-6.27,32.01
				c0.03,6.27,0.46,12.55,0.7,18.81c0.23,5.88,0.36,11.78,0.69,17.66c0.37,6.48,0.6,13.23,2.48,19.42
				c3.28,10.79,8.62,19.97,16.2,28.29c11.47,12.59,28.65,17.96,45.14,18.42c18.11,0.51,33.91-8.73,47.32-19.72
				c6.24-5.11,11.28-11.97,15.55-18.74c2.3-3.65,4.28-7.54,6.04-11.48c5.21-11.68,10.26-23.34,12.78-35.91
				c2.52-12.55,4.32-25.64,4.22-38.49c-0.22-28.09-7.36-54.44-19.58-79.54c-6.04-12.4-14.6-23.54-23.46-34.02
				c-6.44-7.63-14.86-13.18-21.27-20.75c2.89,3.74,5.79,7.49,8.68,11.23c-1.17-1.54-2.12-3.06-2.93-4.81
				c1.86,4.42,3.73,8.84,5.59,13.26c-0.34-0.83-0.59-1.69-0.74-2.58c0.66,4.92,1.32,9.84,1.98,14.75c-0.15-0.9-0.19-1.8-0.12-2.7
				c-0.66,4.92-1.32,9.84-1.98,14.75c0.2-1.36,0.47-2.42,0.97-3.69c-1.86,4.42-3.73,8.84-5.59,13.26c0.33-0.71,0.73-1.37,1.21-1.99
				c-2.89,3.74-5.79,7.49-8.68,11.23c0.79-0.93,1.56-1.68,2.5-2.46c-3.74,2.89-7.49,5.79-11.23,8.68c1.38-0.96,2.77-1.73,4.3-2.42
				c-4.42,1.86-8.84,3.73-13.26,5.59c3.28-1.29,6.63-2.05,10.11-2.57c-4.92,0.66-9.84,1.32-14.75,1.98
				c102.06-13.21,207.43-3.81,306.97-34.44c17.08-5.25,33.58-11.99,49.93-19.18c12.75-5.61,24.78-12.71,37.61-18.13
				c-4.42,1.86-8.84,3.73-13.26,5.59c5.65-2.29,11.36-4.16,17.39-5.16c-4.92,0.66-9.84,1.32-14.75,1.98
				c3.65-0.48,7.17-0.6,10.83-0.22c-4.92-0.66-9.84-1.32-14.75-1.98c2.57,0.39,4.99,1,7.43,1.88c-4.42-1.86-8.84-3.73-13.26-5.59
				c2.78,1.18,5.3,2.62,7.71,4.46c-3.74-2.89-7.49-5.79-11.23-8.68c2.11,1.76,3.94,3.68,5.64,5.85c-2.89-3.74-5.79-7.49-8.68-11.23
				c2.19,3.01,3.94,6.2,5.43,9.6c-1.86-4.42-3.73-8.84-5.59-13.26c6.29,15.3,7.78,32.63,9.98,48.88c-0.66-4.92-1.32-9.84-1.98-14.75
				c2.29,17.29,4.07,34.64,5.25,52.03c1.11,16.22,1.82,32.5-0.19,48.68c0.66-4.92,1.32-9.84,1.98-14.75
				c-1.27,9.15-3.39,18.1-6.95,26.64c1.86-4.42,3.73-8.84,5.59-13.26c-2.58,5.88-5.74,11.38-9.57,16.53
				c2.89-3.74,5.79-7.49,8.68-11.23c-3.59,4.64-7.61,8.79-12.2,12.44c3.74-2.89,7.49-5.79,11.23-8.68
				c-3.85,2.91-7.91,5.33-12.33,7.27c4.42-1.86,8.84-3.73,13.26-5.59c-2.69,1.09-5.41,1.97-8.24,2.65
				c-13.31,3.23-26.33,13.82-33.17,25.51c-6.96,11.9-9.91,29.43-5.59,42.77c4.35,13.43,12.67,26.39,25.51,33.17
				C2322.54,2209.49,2336.9,2211.61,2351.86,2207.98L2351.86,2207.98z"/>
		</g>
	</g>
</g>
<g id="logo">
	<text transform="matrix(0.4443 0.7309 -0.8545 0.5194 1771.7015 1789.458)" class="st5 st6 st7">の</text>
	<g>
		<path d="M1213.65,2344.43c-3.34-3.67-5.65-9.34-5.65-16.75v-11.39c0-5.74,1.54-10.85,4.05-14.71c2.92-18.34,5.3-36.86,7.84-55.33
			H510.31c-29.38,0-53.2-34.07-53.2-76.1v-871.36c0-18.05,4.48-35.51,12.65-49.26l356.38-600.21c21.25-35.78,59.85-35.78,81.1,0
			l459.41,773.75c22.91,38.59,60.06,38.59,82.97,0c22.91-38.59,22.91-101.15,0-139.74L907.24,369.84
			c-21.25-35.78-59.85-35.78-81.1,0l-469.08,790.03c-0.06,0.1-0.12,0.21-0.18,0.31L163.06,1486.6
			c-22.91,38.59-22.91,101.15,0,139.74c11.45,19.29,26.47,28.94,41.48,28.94s30.03-9.65,41.48-28.94l0,0
			c32.05-53.98,93.75-21.56,93.75,49.26v692.16c0,42.03,23.82,76.1,53.2,76.1h830.79C1223.1,2409.9,1220.23,2376.97,1213.65,2344.43
			z"/>
		<g>
			<path d="M1222.13,2335.94c-5.13-6.5-2.04-21.51,0.27-28.31c6.12-17.96,6.47-39.4,9.05-58.2c1.03-7.56-2.95-15.19-11.57-15.19
				c-40.38,0-80.75,0-121.13,0c-87.19,0-174.39,0-261.58,0c-81.78,0-163.57,0-245.35,0c-22.89,0-45.79,0-68.68,0
				c-4.13,0-8.3,0.16-12.43,0c-24.21-0.93-36.61-27.26-40.31-48.08c-2.27-12.77-1.28-26.67-1.28-39.6c0-24.04,0-48.09,0-72.13
				c0-78.75,0-157.5,0-236.25c0-91.52,0-183.04,0-274.56c0-70.16,0-140.31,0-210.46c0-16.46,0-32.92,0-49.37
				c0-18.98,4.14-36.63,13.85-52.99c27.73-46.7,55.46-93.41,83.19-140.11c46.26-77.91,92.52-155.82,138.77-233.72
				c37.13-62.53,74.26-125.06,111.38-187.59c6.68-11.26,13.19-22.64,20.06-33.79c13.3-21.58,37.58-28.95,55.33-7.67
				c3.2,3.84,5.65,8.26,8.2,12.55c23.78,40.06,47.57,80.12,71.35,120.18c43.15,72.67,86.29,145.34,129.44,218
				c46.28,77.94,92.55,155.88,138.83,233.82c32.63,54.95,65.25,109.9,97.88,164.85c6.14,10.34,12.2,20.73,18.42,31.02
				c10.79,17.88,27.02,33.76,48.84,35.49c33.92,2.69,56.2-29.91,65.91-58.19c14.42-41.99,10.61-92.43-12.03-130.78
				c-6.49-11-13.04-21.96-19.56-32.95c-30.67-51.66-61.34-103.31-92.01-154.97c-44.45-74.87-88.9-149.73-133.36-224.6
				c-46.5-78.31-92.99-156.62-139.49-234.93c-36.9-62.16-73.81-124.31-110.71-186.47c-15.26-25.7-30.12-51.7-45.8-77.14
				c-14.53-23.57-41.05-40.13-68.92-29.4c-15.01,5.78-25.8,17.55-33.93,31.07c-6.89,11.47-13.66,23.01-20.49,34.52
				c-33.16,55.85-66.32,111.7-99.48,167.55c-46.13,77.69-92.25,155.37-138.38,233.06c-43.39,73.08-86.79,146.17-130.18,219.25
				c-24.96,42.04-49.92,84.08-74.89,126.13c-19.57,32.97-39.15,65.93-58.72,98.9c-42.11,70.93-84.23,141.86-126.34,212.79
				c-4.23,7.12-8.48,14.22-12.68,21.35c-11.94,20.3-17.87,43.21-19.38,66.63c-2.17,33.69,4.83,71.14,26.36,98.02
				c21.69,27.09,57.5,31.28,82.53,6.12c14.53-14.61,26.05-47.89,53.71-36.25c23.27,9.79,30.71,39.41,30.96,62.09
				c0.13,12.24,0,24.49,0,36.73c0,72.02,0,144.04,0,216.07c0,90.28,0,180.56,0,270.84c0,54.37,0,108.73,0,163.1
				c0,38.03,16.02,88.71,60.61,93.22c10.55,1.07,21.47,0.28,32.04,0.28c62.75,0,125.5,0,188.24,0c90.65,0,181.29,0,271.94,0
				c81.12,0,162.23,0,243.35,0c33.27,0,66.53,0,99.8,0c6.38,0,12.14-5.5,12-12c-0.76-34.46-3.85-68.79-10.55-102.63
				c-3-15.14-26.13-8.73-23.14,6.38c6.28,31.76,8.98,63.91,9.69,96.25c4-4,8-8,12-12c-35.64,0-71.28,0-106.92,0
				c-81.13,0-162.26,0-243.39,0c-90.4,0-180.8,0-271.2,0c-61.4,0-122.79,0-184.18,0c-10.66,0-25.16,2.16-35.33-2.02
				c-28.52-11.71-30.96-47.86-30.96-74.61c0-60.3,0-120.59,0-180.89c0-90.56,0-181.13,0-271.69c0-67.26,0-134.53,0-201.79
				c0-18.16,0.93-36.67-3.46-54.44c-6.11-24.77-22.54-49.53-48.11-57.03c-25.28-7.42-50.07,7.05-63.11,28.57
				c-7.29,12.03-18.74,27.05-35.06,25.23c-16.62-1.85-27.58-18.94-33.77-32.81c-13.46-30.16-13.73-67.5-3.49-98.59
				c6.86-20.82,21.19-40.28,32.29-58.97c43.21-72.77,86.41-145.54,129.62-218.31c16.4-27.61,32.79-55.23,49.19-82.84
				c27.46-46.25,54.92-92.5,82.38-138.75c44.2-74.44,88.39-148.87,132.59-223.31c45.41-76.48,90.82-152.95,136.23-229.43
				c31.1-52.37,62.19-104.75,93.29-157.12c5.32-8.97,10.52-18.03,15.98-26.91c12.51-20.37,35.34-29.1,53.45-9.83
				c3.82,4.06,6.6,8.76,9.41,13.5c20.38,34.33,40.77,68.66,61.15,102.99c39.58,66.66,79.16,133.33,118.74,199.99
				c46.67,78.6,93.33,157.2,140,235.8c42.79,72.06,85.57,144.12,128.36,216.18c26.78,45.1,53.55,90.19,80.33,135.29
				c4.06,6.83,8.23,13.6,12.15,20.51c16.26,28.61,18.62,65.79,10.81,97.33c-5.83,23.54-27.75,67.64-58.1,46.86
				c-11.84-8.11-19.03-23.47-26.28-35.68c-11.55-19.46-23.11-38.92-34.66-58.38c-39.01-65.7-78.01-131.39-117.02-197.09
				c-46.78-78.79-93.56-157.57-140.34-236.36c-38.34-64.58-76.69-129.16-115.03-193.74c-10.97-18.48-21.94-36.96-32.91-55.44
				c-9.63-16.22-18.82-33.2-36.63-41.99c-29.02-14.32-58.21,1.63-73.99,27.17c-1.59,2.57-3.09,5.2-4.63,7.8
				c-10.81,18.21-21.62,36.42-32.43,54.63c-41.23,69.44-82.46,138.87-123.68,208.31c-44.42,74.81-88.84,149.62-133.26,224.43
				c-20.78,35-42.19,69.7-62.37,105.05c-12.7,22.24-14.29,46.19-14.29,70.86c0,21.28,0,42.56,0,63.85c0,75.51,0,151.02,0,226.53
				c0,91.45,0,182.89,0,274.34c0,73.63,0,147.26,0,220.89c0,44.71-8.02,102.89,23.92,138.62c16.5,18.45,36.44,19.69,58.69,19.69
				c24.42,0,48.84,0,73.26,0c83.21,0,166.42,0,249.63,0c85.36,0,170.71,0,256.07,0c37.74,0,75.47,0,113.21,0
				c-3.86-5.06-7.71-10.13-11.57-15.19c-1.72,12.53-3.37,25.07-5.17,37.59c-0.82,5.71-1.17,11.78-2.84,17.33
				c-1.57,5.21-3.62,9.4-4.12,14.94c-1.29,14.23-0.11,28.47,8.98,39.99C1214.72,2365.03,1231.6,2347.94,1222.13,2335.94z"/>
		</g>
	</g>
	<g>
		<defs>
			<polygon id="SVGID_1_" points="-525,152.46 2654.54,-65 2391.54,2865.54 -525,3385 			"/>
		</defs>
		<clipPath id="SVGID_2_">
			<use xlink:href="#SVGID_1_"  style="overflow:visible;"/>
		</clipPath>
		<path class="st8" d="M2258.02,2210.96c3.21,64.82-30.19,160.71-100.32,218.61c-98.93,81.69-211.17,2.31-215.96-1.07
			c-4.6-3.37-10.12-5.15-15.61-5.15c-3.92,0-8.01,0.89-11.74,2.66c-0.36,0.36-28.41,13.32-74.05,22.02
			c2.49-4.44,4.44-8.88,6.04-13.85c13.87-43.33-12.25-97.67-25.04-120.22l78.87-344.87c3.36-14.38-5.7-28.57-20.07-31.97
			c-14.4-3.37-28.61,5.68-31.79,20.07l-81.17,355.17c-1.58,6.93-0.36,14.21,3.37,20.24c11.37,17.94,32.5,62.15,25.04,85.42
			c-1.23,4.08-3.73,8.88-12.61,12.43c-29.99,12.25-67.66,19.71-103.89,17.94c-13.32-2.31-26.09-4.26-38.54-6.04
			c-11.37-3.2-22.2-7.1-32.14-13.14c-30.54-18.29-48.3-49.72-52.74-93.23c-14.56-146.33,65.88-530.98,66.77-534.71
			c3.02-14.38-6.22-28.59-20.6-31.61c-14.38-3.02-28.59,6.22-31.59,20.6c-3.39,16.16-82.93,396.37-67.48,551.04
			c3.53,35.69,14.72,66.24,32.3,90.92c-20.78-0.89-38.36-0.89-52.56-0.53c-18.81,0.53-37.83,0.53-56.47,0
			c-11.9-0.18-26.46-0.18-42.8,0.36c17.58-24.86,28.59-55.23,32.14-90.75c15.45-154.68-64.29-534.88-67.66-551.04
			c-3.02-14.38-17.05-23.62-31.61-20.6c-14.38,3.02-23.44,17.23-20.42,31.61c0.71,3.73,81.33,388.38,66.59,534.71
			c-4.26,43.51-22.02,74.94-52.74,93.23c-7.28,4.44-15.27,7.81-23.42,10.66c-18.31,2.33-37.84,5.33-58.8,8.88
			c-32.5-0.18-65.51-7.28-92.15-18.29c-8.88-3.55-11.38-8.35-12.8-12.43c-7.28-22.91,13.67-67.48,25.04-85.42
			c3.91-6.04,5.15-13.32,3.55-20.24l-81.16-355.17c-3.37-14.38-17.58-23.44-31.97-20.07c-14.38,3.39-23.26,17.58-20.07,31.97
			l78.85,344.87c-12.61,22.55-38.71,76.89-25.04,120.22c1.78,5.68,4.44,10.83,7.46,15.8c-52.21-8.52-84.53-23.62-84.89-23.97
			c-8.88-4.26-19.36-3.37-27.35,2.49c-4.78,3.37-117.03,82.75-216.12,1.07c-69.97-57.89-103.35-153.79-100.16-218.61
			c1.24-26.1,8.17-35.87,9.94-36.94c18.82-10.66,91.1,17.94,144.02,50.08c8.17,4.99,18.65,5.15,26.99,0.55
			c8.35-4.81,13.5-13.87,13.5-23.46c-0.35-31.43,1.62-65.17,5.68-100.16c17.76-152.01,75.47-302.59,166.93-435.61l152.9-221.98
			l283.78-17.05l283.6,17.05l152.9,221.98c91.63,133.03,149.35,283.6,166.95,435.61c4.07,34.98,6.04,68.73,5.84,100.16
			c-0.18,9.59,4.97,18.65,13.51,23.46c8.33,4.6,18.63,4.6,26.98-0.55c52.94-32.14,124.84-60.73,144.02-50.26
			C2249.85,2175.09,2256.8,2185.03,2258.02,2210.96"/>
		<path class="st9" d="M1355.56,1818.55c0,0,49.3-53.7,95.08-53.7c45.78,0,126.96,53.7,126.96,53.7l-50.74,415.32
			c0,0-58.96,49.87-113.21,20.85L1355.56,1818.55z"/>
		<path class="st9" d="M1147.42,2332.6c0,0,97.49-54.84,214.88,3.37c0,0-39.26,180.91-206.3,130.38
			C988.98,2415.83,1147.42,2332.6,1147.42,2332.6"/>
		<path class="st9" d="M1748.46,2332.6c0,0-97.48-54.84-214.88,3.37c0,0,39.26,180.91,206.3,130.38
			C1906.9,2415.83,1748.46,2332.6,1748.46,2332.6"/>
		<path class="st8" d="M804.5,2224.11c0,0,151.75,30.67,162.31,204.4c0,0-44.34,80.21-162.31,46.76
			c-117.99-33.47-252.47-364.94-106.2-326.26C723.67,2155.72,804.5,2224.11,804.5,2224.11"/>
		<path class="st8" d="M2086.3,2224.11c0,0-151.75,30.67-162.31,204.4c0,0,39.73,43.73,162.31,46.76
			c149.65,3.69,272.53-341.41,106.2-326.26C2166.37,2151.39,2086.3,2224.11,2086.3,2224.11"/>
		<path class="st10" d="M804.5,2224.1c-52.92-32.14-125.2-60.73-144.02-50.08c-1.78,1.07-8.7,10.83-9.94,36.94
			c-3.2,64.82,30.19,160.71,100.16,218.59c99.09,81.71,211.33,2.33,216.12-1.05c7.99-5.86,18.47-6.75,27.35-2.49
			c0.36,0.36,32.68,15.45,84.89,23.97c-3.02-4.97-5.68-10.14-7.46-15.8c-13.67-43.33,12.43-97.67,25.04-120.22l-78.85-344.87
			c-3.2-14.38,5.68-28.59,20.07-31.96c14.38-3.39,28.59,5.68,31.97,20.07l81.16,355.17c1.6,6.91,0.36,14.21-3.55,20.23
			c-11.37,17.95-32.32,62.53-25.04,85.44c1.42,4.07,3.91,8.88,12.79,12.43c26.64,11.01,59.67,18.11,92.17,18.27
			c20.95-3.53,40.49-6.55,58.78-8.88c8.17-2.82,16.16-6.2,23.44-10.64c30.72-18.29,48.48-49.72,52.74-93.23
			c14.74-146.33-65.88-531-66.59-534.71c-3.02-14.38,6.04-28.59,20.42-31.61c14.56-3.02,28.59,6.22,31.61,20.58
			c3.37,16.18,83.11,396.39,67.66,551.06c-3.55,35.52-14.56,65.88-32.14,90.75c16.34-0.53,30.9-0.53,42.8-0.36
			c18.65,0.53,37.65,0.53,56.47,0c14.21-0.35,31.79-0.35,52.57,0.53c-17.58-24.68-28.77-55.25-32.3-90.92
			c-15.45-154.68,64.09-534.88,67.46-551.06c3.02-14.37,17.23-23.6,31.61-20.58c14.38,3.02,23.62,17.23,20.6,31.61
			c-0.89,3.71-81.33,388.38-66.77,534.71c4.44,43.51,22.2,74.94,52.74,93.23c9.95,6.04,20.78,9.93,32.14,13.14
			c12.45,1.78,25.22,3.73,38.54,6.04c36.23,1.78,73.88-5.68,103.89-17.94c8.88-3.55,11.38-8.36,12.61-12.43
			c7.46-23.28-13.67-67.48-25.04-85.44c-3.73-6.02-4.97-13.32-3.37-20.23l81.17-355.17c3.18-14.38,17.39-23.46,31.79-20.07
			c14.37,3.37,23.42,17.58,20.07,31.96l-78.86,344.87c12.79,22.55,38.91,76.89,25.04,120.22c-1.6,4.95-3.55,9.39-6.04,13.83
			c45.64-8.68,73.7-21.65,74.05-22c3.73-1.78,7.81-2.66,11.72-2.66c5.51,0,11.03,1.76,15.63,5.15
			c4.79,3.37,117.03,82.75,215.96,1.05c70.13-57.87,103.53-153.77,100.32-218.59c-1.23-25.93-8.17-35.87-9.94-37.12
			c-19.18-10.48-91.1,18.11-144.02,50.26c-8.35,5.15-18.65,5.15-26.99,0.53c-8.52-4.79-13.67-13.85-13.5-23.44
			c0.18-31.43-1.78-65.17-5.84-100.18c-17.6-151.99-75.31-302.59-166.95-435.6l-152.9-221.98l-283.6-17.05l-283.78,17.05
			l-152.9,221.98c-91.46,133.01-149.17,283.6-166.93,435.6c-4.08,35-6.04,68.74-5.68,100.18c0,9.59-5.15,18.65-13.5,23.44
			C823.14,2229.25,812.67,2229.08,804.5,2224.1 M985.28,2480.18c-57.36,35.34-171.55,70.5-268.51-9.59
			c-87.73-72.45-126.26-191.08-118.98-270.48c3.37-36.03,16.16-61.25,36.76-72.79c40.49-22.38,110.81,5.33,158.05,29.3
			c1.07-20.08,2.66-40.67,5.15-61.8c18.82-160.54,79.56-319.47,175.99-459.59l160.36-232.64c4.62-6.77,12.08-11.01,20.24-11.54
			l298.34-17.94h3.2l298.16,17.94c8.17,0.53,15.82,4.78,20.42,11.54l160.18,232.64c96.45,140.11,157.34,299.05,175.99,459.59
			c2.49,21.13,4.26,41.71,5.15,61.8c35.18-17.76,82.75-37.47,121.47-37.47c13.69,0,26.1,2.31,36.6,8.17
			c20.76,11.54,33.55,36.76,36.74,72.79c7.28,79.4-31.08,198.02-118.96,270.48c-43.35,35.85-90.21,48.66-133.9,48.66
			c-53.83,0-102.82-19.53-134.45-39.07c-34.63,13.5-127.86,42.44-247.2,21.67c-16.34-0.71-32.66-3.2-48.48-7.46
			c-68.37-9.41-117.92-10.14-143.67-9.41c-19.71,0.53-39.78,0.53-59.49,0c-23.26-0.53-66.24-0.18-125.37,6.93
			c-22.2,7.1-45.46,10.1-68.55,10.3C1112.07,2522.27,1019.73,2493.5,985.28,2480.18"/>
		<path class="st8" d="M1845.77,498.47c62.51,94.48,270.82,433.29,241.67,712.11c-39.25,374.51-365.98,453-633.25,453
			c-267.09,0-593.84-78.49-633.09-453c-29.12-278.83,179.18-617.64,241.69-712.11c32.14,31.97,92.17,96.43,129.62,164.44
			c5.7,10.48,17.6,15.79,29.32,13.14c1.05-0.18,110.46-24.7,232.46-24.7c122.18,0,231.55,24.52,232.64,24.7
			c11.53,2.65,23.62-2.66,29.28-13.14C1753.6,594.9,1813.6,530.43,1845.77,498.47"/>
		<path class="st9" d="M2087.39,1210.57c0,0-100.71,141.68-354.09,150.54c0,0-81.17-150.54-279.06-150.54
			c-197.9,0-279.06,150.54-279.06,150.54c-253.4-8.86-354.1-150.54-354.1-150.54c-47.24,470.19,633.16,484.79,633.16,484.79
			S2134.63,1680.77,2087.39,1210.57"/>
		<path class="st8" d="M1633.77,1404.6c-0.43,0.39-43.28,40.21-86.11,32.18c-25.93-4.94-48.69-27.49-67.73-66.81
			c17.94-8.31,35.87-21.98,53.81-41.32c28.79-31.04,12.48-82.31-28.7-92.04c-14.21-3.36-31.01-5.51-50.77-5.51
			c-19.78,0-36.58,2.15-50.79,5.51c-41.18,9.73-57.5,61-28.72,92.04c17.94,19.34,35.89,33.01,53.83,41.32
			c-19.04,39.32-41.8,61.87-67.75,66.81c-42.6,7.97-85.17-31.31-86.09-32.16c-10.6-10.1-27.44-9.73-37.59,0.85
			c-10.19,10.62-9.82,27.49,0.8,37.67c2.26,2.17,50.84,47.98,111.26,47.98c6.93,0,14.01-0.6,21.19-1.94
			c32.46-6.06,60.52-25.68,83.86-58.16c23.35,32.5,51.39,52.1,83.87,58.16c7.19,1.33,14.26,1.94,21.19,1.94
			c60.41,0,108.98-45.82,111.26-47.98c10.58-10.16,10.94-26.94,0.82-37.56C1661.3,1394.94,1644.45,1394.56,1633.77,1404.6"/>
		<path class="st10" d="M1300.92,1114.72c0,40.01-32.44,72.45-72.47,72.45c-40.01,0-72.45-32.44-72.45-72.45
			c0-40.03,32.44-72.45,72.45-72.45C1268.48,1042.27,1300.92,1074.7,1300.92,1114.72"/>
		<path class="st10" d="M1752.5,1114.72c0,40.01-32.44,72.45-72.45,72.45c-40.03,0-72.47-32.44-72.47-72.45
			c0-40.03,32.44-72.45,72.47-72.45C1720.05,1042.27,1752.5,1074.7,1752.5,1114.72"/>
		<path class="st9" d="M1613.76,921.2c11.76,19.66,38.51,16.92,59.74-6.15c21.24-23.07,28.92-57.71,17.15-77.39
			c-11.76-19.68-38.5-16.93-59.74,6.14C1609.67,866.87,1602,901.52,1613.76,921.2"/>
		<path class="st10" d="M828.48,1261.32c0,0,84.49,337.64,625.79,337.64s635.33-337.64,635.33-337.64s-16.36,434.03-635.34,434.03
			C835.24,1695.35,828.48,1261.32,828.48,1261.32"/>
		<path class="st10" d="M2087.44,1210.57c29.14-278.81-179.16-617.62-241.67-712.11c-32.16,31.97-92.17,96.43-129.65,164.44
			c-5.66,10.48-17.76,15.8-29.28,13.14c-1.08-0.16-110.46-24.68-232.64-24.68c-122,0-231.41,24.52-232.46,24.68
			c-11.72,2.66-23.62-2.66-29.3-13.14c-37.47-68.01-97.49-132.48-129.64-164.44c-62.51,94.49-270.82,433.31-241.69,712.11
			c39.25,374.53,366,453.02,633.09,453.02C1721.46,1663.59,2048.19,1585.1,2087.44,1210.57 M1871.69,441.81
			c12.41,17.24,304.72,428.16,268.69,774.29c-34.29,327.63-271.53,500.77-686.19,500.77c-414.48,0-651.73-173.14-686.01-500.77
			c-36.23-346.13,256.25-757.04,268.69-774.29c4.44-6.22,11.19-10.1,18.82-11.01c7.46-0.71,15.09,1.62,20.58,6.77
			c4.08,3.53,94.67,85.58,152.92,182.54c37.99-7.28,126.42-22.02,225-22.02c98.56,0,187.16,14.74,224.98,22.02
			c58.43-96.96,149.01-179.01,153.08-182.54c5.52-5.15,13.16-7.48,20.6-6.77C1860.31,431.71,1867.25,435.59,1871.69,441.81"/>
		<path class="st9" d="M1253.82,835.85c10.88-20.17,37.72-18.61,59.95,3.49c22.25,22.1,31.46,56.37,20.58,76.55
			c-10.87,20.18-37.71,18.63-59.95-3.48C1252.16,890.31,1242.95,856.03,1253.82,835.85"/>
	</g>
	<path class="st11" d="M3951,1416"/>
	<path class="st11" d="M3272,1189"/>
	<rect x="2319.38" y="1589.33" class="st12" width="4.24" height="0"/>
	<circle cx="1256.11" cy="1127.47" r="54.84"/>
	<circle cx="1661.33" cy="1127.47" r="54.84"/>
	<text transform="matrix(1 0 0 1 5198.6055 509.8916)" class="st6" style="font-size:12px;">滾滾長江東逝水</text>
	<text transform="matrix(1 0 0 1 -1735.4077 1544.4902)" class="st6" style="font-size:12px;">滾滾長江東逝水</text>
	<text transform="matrix(1 0 0 1 -1243.79 1045.5352)" class="st6" style="font-size:12px;">滾滾長江東逝水</text>
	<line class="st12" x1="4274.07" y1="1874.68" x2="4186.02" y2="1874.68"/>
	<rect x="3789.79" y="1882.02" class="st12" width="36.69" height="0"/>
</g>
</svg>
